<svg width="1440" height="202" viewBox="0 0 1440 202" fill="none" xmlns="http://www.w3.org/2000/svg">
<path d="M0 151L189.811 81.7363C244.088 61.9303 303.73 62.631 357.526 83.7067V83.7067C400.813 100.665 448.13 104.519 493.59 94.7908L533.562 86.2368C587.773 74.6353 644.241 79.9828 695.311 101.554L707.273 106.607C773.846 134.726 849.486 131.715 913.612 98.3933V98.3933C971.91 68.1001 1040 62.7361 1102.32 83.5268L1133.43 93.9046C1194.2 114.179 1259.9 114.312 1320.75 94.2832V94.2832C1350.79 84.3963 1382.22 79.3582 1413.84 79.3582H1440" stroke="#107BEF" stroke-width="3"/>
<path d="M1440 201L1250.19 131.736C1195.91 111.93 1136.27 112.631 1082.47 133.707V133.707C1039.19 150.665 991.87 154.519 946.41 144.791L906.438 136.237C852.227 124.635 795.759 129.983 744.689 151.554L732.727 156.607C666.154 184.726 590.514 181.715 526.388 148.393V148.393C468.09 118.1 400.002 112.736 337.68 133.527L306.571 143.905C245.797 164.179 180.104 164.312 119.248 144.283V144.283C89.2069 134.396 57.7829 129.358 26.1571 129.358H-2.13385e-05" stroke="#107BEF"/>
<path d="M1440 1L1250.19 70.2637C1195.91 90.0697 1136.27 89.369 1082.47 68.2933V68.2933C1039.19 51.3352 991.87 47.4806 946.41 57.2092L906.438 65.7632C852.227 77.3647 795.759 72.0172 744.689 50.4458L732.727 45.393C666.154 17.2737 590.514 20.2847 526.388 53.6067V53.6067C468.09 83.8999 400.002 89.2639 337.68 68.4732L306.571 58.0954C245.797 37.821 180.104 37.6882 119.248 57.7168V57.7168C89.2069 67.6037 57.7829 72.6418 26.1571 72.6418H-2.13385e-05" stroke="#107BEF"/>
</svg>
