<svg width="25" height="24" viewBox="0 0 25 24" fill="none" xmlns="http://www.w3.org/2000/svg">
<path d="M20.814 16.9286V10C20.814 6.22876 20.814 4.34315 19.6424 3.17157C18.4709 2 16.5852 2 12.814 2H11.814C8.04272 2 6.15711 2 4.98553 3.17157C3.81396 4.34315 3.81396 6.22876 3.81396 10V19.5" fill="#D9D9D9" fill-opacity="0.43"/>
<path d="M20.814 16.9286V10C20.814 6.22876 20.814 4.34315 19.6424 3.17157C18.4709 2 16.5852 2 12.814 2H11.814C8.04272 2 6.15711 2 4.98553 3.17157C3.81396 4.34315 3.81396 6.22876 3.81396 10V19.5" stroke="white" stroke-width="1.5" stroke-linecap="round"/>
<path d="M20.814 17H6.31396C4.93325 17 3.81396 18.1193 3.81396 19.5C3.81396 20.8807 4.93325 22 6.31396 22H20.814" fill="#D9D9D9" fill-opacity="0.43"/>
<path d="M20.814 17H6.31396C4.93325 17 3.81396 18.1193 3.81396 19.5C3.81396 20.8807 4.93325 22 6.31396 22H20.814" stroke="white" stroke-width="1.5" stroke-linecap="round"/>
<path d="M20.814 22C19.4333 22 18.314 20.8807 18.314 19.5C18.314 18.1193 19.4333 17 20.814 17" stroke="white" stroke-width="1.5" stroke-linecap="round"/>
<path d="M15.314 7H9.31396" stroke="white" stroke-width="1.5" stroke-linecap="round" stroke-linejoin="round"/>
<path d="M12.314 11H9.31396" stroke="white" stroke-width="1.5" stroke-linecap="round" stroke-linejoin="round"/>
</svg>
