<svg width="16" height="15" viewBox="0 0 16 15" fill="none" xmlns="http://www.w3.org/2000/svg">
<path d="M5.07954 11.3948C3.99722 11.6384 3.3042 12.0128 3.3042 12.4326C3.3042 13.1667 5.42379 13.7619 8.03845 13.7619C10.6531 13.7619 12.7727 13.1667 12.7727 12.4326C12.7727 12.0128 12.0797 11.6384 10.9974 11.3948" fill="#D4D4D4"/>
<path d="M5.07954 11.3948C3.99722 11.6384 3.3042 12.0128 3.3042 12.4326C3.3042 13.1667 5.42379 13.7619 8.03845 13.7619C10.6531 13.7619 12.7727 13.1667 12.7727 12.4326C12.7727 12.0128 12.0797 11.6384 10.9974 11.3948" stroke="#C5C5C5" stroke-width="0.887671" stroke-linecap="round"/>
<path d="M8.78257 10.5033C8.58296 10.6955 8.31618 10.803 8.03858 10.803C7.76092 10.803 7.49414 10.6955 7.29453 10.5033C5.46676 8.73221 3.01731 6.75371 4.21184 3.88134C4.8577 2.32826 6.40807 1.33447 8.03858 1.33447C9.66905 1.33447 11.2194 2.32827 11.8653 3.88134C13.0583 6.7501 10.6148 8.7383 8.78257 10.5033Z" fill="#D4D4D4" stroke="#C5C5C5" stroke-width="0.887671"/>
<path d="M9.51786 6.06869C9.51786 6.88576 8.85548 7.54814 8.03841 7.54814C7.22134 7.54814 6.55896 6.88576 6.55896 6.06869C6.55896 5.25161 7.22134 4.58923 8.03841 4.58923C8.85548 4.58923 9.51786 5.25161 9.51786 6.06869Z" fill="#D4D4D4" stroke="#A1A1A1" stroke-width="0.887671"/>
</svg>
