<svg width="36" height="36" viewBox="0 0 36 36" fill="none" xmlns="http://www.w3.org/2000/svg">
<g filter="url(#filter0_d_158_1147)">
<rect x="5.32678" y="1.75806" width="25.2707" height="25.2707" rx="3.8878" fill="#107BEF"/>
<path d="M23.7939 9.74451C22.2251 9.49059 21.0599 9.79068 20.2983 10.6448C19.5366 11.4988 19.1558 12.7569 19.1558 14.4189V19.1279H23.7939V14.4189H21.4066C21.2816 13.5879 21.3953 12.9127 21.7477 12.3933C22.1114 11.874 22.7026 11.6489 23.5211 11.7181L23.7939 9.74451ZM16.7686 9.74451C15.1998 9.49059 14.0346 9.79068 13.273 10.6448C12.5113 11.4988 12.1305 12.7569 12.1305 14.4189V19.1279H16.7686V14.4189H14.3813C14.2563 13.5879 14.37 12.9127 14.7224 12.3933C15.0861 11.874 15.6773 11.6489 16.4957 11.7181L16.7686 9.74451Z" fill="white"/>
</g>
<defs>
<filter id="filter0_d_158_1147" x="0.467036" y="0.786108" width="34.9901" height="34.9902" filterUnits="userSpaceOnUse" color-interpolation-filters="sRGB">
<feFlood flood-opacity="0" result="BackgroundImageFix"/>
<feColorMatrix in="SourceAlpha" type="matrix" values="0 0 0 0 0 0 0 0 0 0 0 0 0 0 0 0 0 0 127 0" result="hardAlpha"/>
<feMorphology radius="3.8878" operator="erode" in="SourceAlpha" result="effect1_dropShadow_158_1147"/>
<feOffset dy="3.8878"/>
<feGaussianBlur stdDeviation="4.37377"/>
<feColorMatrix type="matrix" values="0 0 0 0 0.388235 0 0 0 0 0.4 0 0 0 0 0.945098 0 0 0 0.9 0"/>
<feBlend mode="normal" in2="BackgroundImageFix" result="effect1_dropShadow_158_1147"/>
<feBlend mode="normal" in="SourceGraphic" in2="effect1_dropShadow_158_1147" result="shape"/>
</filter>
</defs>
</svg>
