<svg width="22" height="31" viewBox="0 0 22 31" fill="none" xmlns="http://www.w3.org/2000/svg">
<path fill-rule="evenodd" clip-rule="evenodd" d="M15.3451 5.6633C16.8663 5.6633 18.0994 4.43018 18.0994 2.90904C18.0994 1.38791 16.8663 0.154785 15.3451 0.154785C13.824 0.154785 12.5909 1.38791 12.5909 2.90904C12.5909 4.43018 13.824 5.6633 15.3451 5.6633ZM6.99827 5.28691L3.07055 8.91251C2.8635 9.10363 2.71155 9.34684 2.63058 9.61674L2.21911 10.9883C1.94776 11.8928 2.80828 12.7276 3.70413 12.429C3.85619 12.3783 3.99615 12.2968 4.11528 12.1896L7.04883 9.54943C7.53156 9.11497 8.24741 9.06305 8.78778 9.4233C9.53395 9.92075 9.63848 10.9765 9.00436 11.6106L4.94838 15.6666C2.04853 16.8264 0 19.662 0 22.976C0 27.3221 3.52321 30.8453 7.86931 30.8453C12.2154 30.8453 15.7386 27.3221 15.7386 22.976C15.7386 21.8557 15.5045 20.7901 15.0826 19.8255C15.1124 19.8272 15.1422 19.828 15.1721 19.828H15.9669C16.898 19.828 17.6256 20.632 17.5329 21.5585L16.9691 27.1967C16.9365 27.5223 17.0063 27.85 17.1686 28.1342L17.5613 28.8213C18.0471 29.6715 19.1831 29.8764 19.9354 29.2495L20.3549 28.8999C20.6743 28.6337 20.8755 28.2518 20.9143 27.8378L21.8565 17.7874C21.9487 16.8043 21.1233 15.9801 20.1403 16.0737L17.8871 16.2883C16.4471 16.4255 15.6003 14.7106 16.5846 13.6506L17.5729 12.5863C18.251 11.856 18.0883 10.6872 17.2364 10.17L8.88259 5.09808C8.28264 4.73382 7.51401 4.81085 6.99827 5.28691ZM7.86932 27.6973C10.477 27.6973 12.5909 25.5834 12.5909 22.9758C12.5909 20.3681 10.477 18.2542 7.86932 18.2542C5.26167 18.2542 3.14774 20.3681 3.14774 22.9758C3.14774 25.5834 5.26167 27.6973 7.86932 27.6973Z" fill="#107BEF"/>
</svg>
