<svg width="22" height="31" viewBox="0 0 22 31" fill="none" xmlns="http://www.w3.org/2000/svg">
<path fill-rule="evenodd" clip-rule="evenodd" d="M15.3451 5.66327C16.8663 5.66327 18.0994 4.43015 18.0994 2.90901C18.0994 1.38788 16.8663 0.154757 15.3451 0.154757C13.824 0.154757 12.5909 1.38788 12.5909 2.90901C12.5909 4.43015 13.824 5.66327 15.3451 5.66327ZM6.99827 5.28689L3.07055 8.91248C2.8635 9.1036 2.71155 9.34681 2.63058 9.61671L2.21911 10.9883C1.94776 11.8928 2.80828 12.7276 3.70413 12.429C3.85619 12.3783 3.99615 12.2968 4.11528 12.1896L7.04883 9.5494C7.53156 9.11495 8.24741 9.06302 8.78778 9.42327C9.53395 9.92072 9.63848 10.9765 9.00436 11.6106L4.94838 15.6666C2.04853 16.8264 0 19.6619 0 22.9759C0 27.322 3.52321 30.8452 7.86931 30.8452C12.2154 30.8452 15.7386 27.322 15.7386 22.9759C15.7386 21.8557 15.5045 20.7901 15.0826 19.8254C15.1124 19.8271 15.1422 19.828 15.1721 19.828H15.9669C16.898 19.828 17.6256 20.632 17.5329 21.5585L16.9691 27.1967C16.9365 27.5223 17.0063 27.85 17.1686 28.1341L17.5613 28.8213C18.0471 29.6715 19.1831 29.8764 19.9354 29.2495L20.3549 28.8999C20.6743 28.6337 20.8755 28.2518 20.9143 27.8377L21.8565 17.7874C21.9487 16.8043 21.1233 15.9801 20.1403 16.0737L17.8871 16.2883C16.4471 16.4254 15.6003 14.7106 16.5846 13.6506L17.5729 12.5862C18.251 11.8559 18.0883 10.6872 17.2364 10.17L8.88259 5.09805C8.28264 4.73379 7.51401 4.81082 6.99827 5.28689ZM7.86932 27.6973C10.477 27.6973 12.5909 25.5834 12.5909 22.9757C12.5909 20.3681 10.477 18.2541 7.86932 18.2541C5.26167 18.2541 3.14774 20.3681 3.14774 22.9757C3.14774 25.5834 5.26167 27.6973 7.86932 27.6973Z" fill="white"/>
<rect width="5.50851" height="5.50851" transform="translate(4.72156 19.8281)" fill="white"/>
<path d="M6.2135 23.8447V23.1562M7.36111 23.8447V21.7791M8.50872 23.8447V22.9267" stroke="#107BEF" stroke-width="0.344282" stroke-linecap="round"/>
<path d="M9.6563 21.0904C9.6563 21.4707 9.34803 21.779 8.96774 21.779C8.58745 21.779 8.27917 21.4707 8.27917 21.0904C8.27917 20.7101 8.58745 20.4019 8.96774 20.4019C9.34803 20.4019 9.6563 20.7101 9.6563 21.0904Z" stroke="#107BEF" stroke-width="0.344282"/>
<path d="M9.65529 22.3528C9.65529 22.3528 9.65632 22.4307 9.65632 22.5823C9.65632 23.6102 9.65632 24.1241 9.33701 24.4435C9.01767 24.7628 8.50373 24.7628 7.47586 24.7628C6.44799 24.7628 5.93405 24.7628 5.61473 24.4435C5.29541 24.1241 5.29541 23.6102 5.29541 22.5823C5.29541 21.5544 5.29541 21.0405 5.61473 20.7212C5.93405 20.4019 6.44799 20.4019 7.47586 20.4019L7.70539 20.4019" fill="#D9D9D9" fill-opacity="0.2"/>
<path d="M9.65529 22.3528C9.65529 22.3528 9.65632 22.4307 9.65632 22.5823C9.65632 23.6102 9.65632 24.1241 9.33701 24.4435C9.01767 24.7628 8.50373 24.7628 7.47586 24.7628C6.44799 24.7628 5.93405 24.7628 5.61473 24.4435C5.29541 24.1241 5.29541 23.6102 5.29541 22.5823C5.29541 21.5544 5.29541 21.0405 5.61473 20.7212C5.93405 20.4019 6.44799 20.4019 7.47586 20.4019L7.70539 20.4019" stroke="#107BEF" stroke-width="0.344282" stroke-linecap="round" stroke-linejoin="round"/>
</svg>
