<svg width="129" height="24" viewBox="0 0 129 24" fill="none" xmlns="http://www.w3.org/2000/svg">
<g clip-path="url(#clip0_158_1114)">
<path d="M19.9972 18.0623H26.5992L10.2447 1.70764H3.64258L19.9972 18.0623Z" fill="#7476ED"/>
<path d="M13.6365 1.70764L29.402 17.4732V1.70764H25.1356V6.68511L20.1581 1.70764L13.6365 1.70764Z" fill="#E56F8C"/>
<path d="M0.878662 2.25513V18.0622H5.14508V13.0847L10.1225 18.0622H16.6857L0.878662 2.25513Z" fill="#64C2DB"/>
<path d="M39.6975 15.6031H43.5202V17.8558H36.7793V5.87573H39.6975V15.6031Z" fill="#3A3B7B"/>
<path d="M48.7347 17.9922C47.8018 17.9922 46.9598 17.7931 46.209 17.3949C45.4694 16.9967 44.8836 16.4278 44.4512 15.6884C44.0303 14.9488 43.8198 14.0842 43.8198 13.0943C43.8198 12.116 44.0359 11.2569 44.4683 10.5175C44.9007 9.76654 45.4922 9.19202 46.2431 8.79383C46.994 8.39563 47.8359 8.19653 48.7688 8.19653C49.7018 8.19653 50.5436 8.39563 51.2946 8.79383C52.0454 9.19202 52.637 9.76654 53.0694 10.5175C53.5017 11.2569 53.7178 12.116 53.7178 13.0943C53.7178 14.0728 53.4961 14.9374 53.0523 15.6884C52.62 16.4278 52.0226 16.9967 51.2604 17.3949C50.5095 17.7931 49.6676 17.9922 48.7347 17.9922ZM48.7347 15.4665C49.2922 15.4665 49.7644 15.2617 50.1512 14.8521C50.5493 14.4426 50.7484 13.8567 50.7484 13.0943C50.7484 12.3321 50.555 11.7462 50.1682 11.3366C49.7928 10.9271 49.3263 10.7223 48.7688 10.7223C48.2 10.7223 47.7278 10.9271 47.3524 11.3366C46.9769 11.7348 46.7892 12.3208 46.7892 13.0943C46.7892 13.8567 46.9712 14.4426 47.3353 14.8521C47.7108 15.2617 48.1773 15.4665 48.7347 15.4665Z" fill="#3A3B7B"/>
<path d="M58.3722 8.19653C59.0435 8.19653 59.6294 8.33306 60.13 8.60611C60.642 8.87916 61.0345 9.23756 61.3075 9.68124V8.33306H64.2258V17.8386C64.2258 18.7147 64.0494 19.5054 63.6967 20.2107C63.3554 20.9275 62.8264 21.4963 62.1096 21.9173C61.4042 22.3383 60.5225 22.5488 59.4645 22.5488C58.0536 22.5488 56.9103 22.2131 56.0343 21.5418C55.1582 20.882 54.6576 19.9832 54.5324 18.8455H57.4166C57.5076 19.2096 57.7238 19.494 58.065 19.6987C58.4064 19.9149 58.8273 20.023 59.328 20.023C59.9309 20.023 60.4087 19.8467 60.7615 19.494C61.1255 19.1527 61.3075 18.6009 61.3075 17.8386V16.4904C61.0231 16.9341 60.6306 17.2982 60.13 17.5827C59.6294 17.8557 59.0435 17.9922 58.3722 17.9922C57.5873 17.9922 56.8761 17.7931 56.239 17.3949C55.6019 16.9853 55.0956 16.4108 54.7202 15.6713C54.3562 14.9204 54.1741 14.0558 54.1741 13.0773C54.1741 12.0989 54.3562 11.2399 54.7202 10.5004C55.0956 9.76092 55.6019 9.19202 56.239 8.79383C56.8761 8.39563 57.5873 8.19653 58.3722 8.19653ZM61.3075 13.0943C61.3075 12.3663 61.1028 11.7917 60.6932 11.3707C60.295 10.9498 59.8057 10.7393 59.2256 10.7393C58.6453 10.7393 58.1504 10.9498 57.7408 11.3707C57.3426 11.7803 57.1435 12.3492 57.1435 13.0773C57.1435 13.8055 57.3426 14.3857 57.7408 14.818C58.1504 15.239 58.6453 15.4494 59.2256 15.4494C59.8057 15.4494 60.295 15.239 60.6932 14.818C61.1028 14.3971 61.3075 13.8225 61.3075 13.0943Z" fill="#3A3B7B"/>
<path d="M70.1593 17.9922C69.2263 17.9922 68.3845 17.7931 67.6335 17.3949C66.8941 16.9967 66.3081 16.4278 65.8758 15.6884C65.4549 14.9488 65.2444 14.0842 65.2444 13.0943C65.2444 12.116 65.4606 11.2569 65.8929 10.5175C66.3252 9.76654 66.9168 9.19202 67.6677 8.79383C68.4186 8.39563 69.2605 8.19653 70.1934 8.19653C71.1263 8.19653 71.9683 8.39563 72.7191 8.79383C73.47 9.19202 74.0617 9.76654 74.4939 10.5175C74.9263 11.2569 75.1425 12.116 75.1425 13.0943C75.1425 14.0728 74.9206 14.9374 74.4769 15.6884C74.0446 16.4278 73.4473 16.9967 72.685 17.3949C71.9341 17.7931 71.0922 17.9922 70.1593 17.9922ZM70.1593 15.4665C70.7168 15.4665 71.1889 15.2617 71.5757 14.8521C71.974 14.4426 72.1731 13.8567 72.1731 13.0943C72.1731 12.3321 71.9797 11.7462 71.5928 11.3366C71.2173 10.9271 70.7509 10.7223 70.1934 10.7223C69.6246 10.7223 69.1524 10.9271 68.777 11.3366C68.4015 11.7348 68.2138 12.3208 68.2138 13.0943C68.2138 13.8567 68.3959 14.4426 68.7599 14.8521C69.1354 15.2617 69.6018 15.4665 70.1593 15.4665Z" fill="#3A3B7B"/>
<path d="M77.6465 7.34331C77.1345 7.34331 76.7135 7.1954 76.3835 6.8996C76.0651 6.59241 75.9058 6.21698 75.9058 5.77326C75.9058 5.31818 76.0651 4.94273 76.3835 4.64693C76.7135 4.33975 77.1345 4.18616 77.6465 4.18616C78.147 4.18616 78.5566 4.33975 78.8752 4.64693C79.2051 4.94273 79.3701 5.31818 79.3701 5.77326C79.3701 6.21698 79.2051 6.59241 78.8752 6.8996C78.5566 7.1954 78.147 7.34331 77.6465 7.34331ZM79.097 8.33311V17.8557H76.1788V8.33311H79.097Z" fill="#3A3B7B"/>
<path d="M83.618 9.68124C83.9029 9.23756 84.2951 8.87916 84.7955 8.60611C85.296 8.33306 85.8822 8.19653 86.5536 8.19653C87.3389 8.19653 88.0499 8.39563 88.6865 8.79383C89.324 9.19202 89.8244 9.76092 90.1886 10.5004C90.5643 11.2399 90.7517 12.0989 90.7517 13.0773C90.7517 14.0558 90.5643 14.9204 90.1886 15.6713C89.8244 16.4108 89.324 16.9853 88.6865 17.3949C88.0499 17.7931 87.3389 17.9922 86.5536 17.9922C85.8938 17.9922 85.3075 17.8557 84.7955 17.5827C84.2951 17.3096 83.9029 16.9569 83.618 16.5245V22.3952H80.7V8.33306H83.618V9.68124ZM87.7823 13.0773C87.7823 12.3492 87.5775 11.7803 87.1679 11.3707C86.7699 10.9498 86.2745 10.7393 85.6832 10.7393C85.1027 10.7393 84.6081 10.9498 84.1985 11.3707C83.8005 11.7917 83.6015 12.3663 83.6015 13.0943C83.6015 13.8225 83.8005 14.3971 84.1985 14.818C84.6081 15.239 85.1027 15.4494 85.6832 15.4494C86.2637 15.4494 86.7584 15.239 87.1679 14.818C87.5775 14.3857 87.7823 13.8055 87.7823 13.0773Z" fill="#3A3B7B"/>
<path d="M95.6441 17.9922C94.8134 17.9922 94.0744 17.85 93.4262 17.5656C92.7771 17.2812 92.2651 16.8943 91.8903 16.4051C91.5145 15.9046 91.304 15.347 91.2585 14.7326H94.1429C94.1768 15.0626 94.3304 15.33 94.6037 15.5348C94.8762 15.7396 95.2123 15.842 95.6103 15.842C95.9745 15.842 96.2527 15.7737 96.4468 15.6372C96.6516 15.4893 96.754 15.3015 96.754 15.074C96.754 14.8009 96.6111 14.6018 96.327 14.4767C96.0422 14.3402 95.5814 14.1923 94.9447 14.033C94.2618 13.8737 93.6929 13.7087 93.2379 13.5381C92.7829 13.356 92.3907 13.0773 92.0604 12.7019C91.7309 12.3151 91.5657 11.7974 91.5657 11.1489C91.5657 10.6028 91.7135 10.1079 92.0092 9.66414C92.3163 9.20909 92.7606 8.85071 93.3403 8.58904C93.9324 8.32737 94.6318 8.19653 95.4394 8.19653C96.6342 8.19653 97.5731 8.49234 98.2552 9.08395C98.9497 9.67554 99.3477 10.4606 99.4501 11.439H96.754C96.7077 11.1091 96.5599 10.8474 96.3097 10.654C96.0711 10.4606 95.7523 10.3639 95.3543 10.3639C95.0133 10.3639 94.7515 10.4321 94.569 10.5687C94.3873 10.6938 94.2965 10.8702 94.2965 11.0977C94.2965 11.3707 94.4385 11.5755 94.7226 11.712C95.0182 11.8486 95.474 11.9851 96.0884 12.1216C96.7936 12.3037 97.3683 12.4857 97.8118 12.6678C98.2552 12.8384 98.6425 13.1228 98.9719 13.521C99.3138 13.9079 99.4897 14.4312 99.5013 15.091C99.5013 15.6486 99.3419 16.1491 99.0231 16.5928C98.716 17.0252 98.2668 17.3665 97.6755 17.6168C97.095 17.8671 96.4179 17.9922 95.6441 17.9922Z" fill="#3A3B7B"/>
<path d="M110.178 8.33301V17.8556H107.259V16.5587C106.964 16.9796 106.56 17.3209 106.048 17.5826C105.548 17.8329 104.99 17.958 104.376 17.958C103.648 17.958 103.004 17.7988 102.447 17.4802C101.89 17.1502 101.458 16.6781 101.15 16.0637C100.843 15.4494 100.69 14.727 100.69 13.8964V8.33301H103.591V13.5039C103.591 14.141 103.756 14.6359 104.085 14.9886C104.416 15.3413 104.859 15.5176 105.416 15.5176C105.985 15.5176 106.434 15.3413 106.765 14.9886C107.095 14.6359 107.259 14.141 107.259 13.5039V8.33301H110.178Z" fill="#3A3B7B"/>
<path d="M123.912 8.23059C125.096 8.23059 126.035 8.58897 126.728 9.30569C127.434 10.0225 127.787 11.018 127.787 12.2922V17.8556H124.885V12.6847C124.885 12.0703 124.721 11.5982 124.391 11.2683C124.072 10.927 123.628 10.7563 123.059 10.7563C122.49 10.7563 122.041 10.927 121.711 11.2683C121.393 11.5982 121.234 12.0703 121.234 12.6847V17.8556H118.332V12.6847C118.332 12.0703 118.168 11.5982 117.837 11.2683C117.519 10.927 117.075 10.7563 116.506 10.7563C115.937 10.7563 115.488 10.927 115.158 11.2683C114.84 11.5982 114.68 12.0703 114.68 12.6847V17.8556H111.762V8.33299H114.68V9.52758C114.976 9.12939 115.363 8.81652 115.841 8.58897C116.319 8.35005 116.859 8.23059 117.462 8.23059C118.178 8.23059 118.816 8.38418 119.373 8.69136C119.942 8.99855 120.386 9.43658 120.704 10.0054C121.035 9.48208 121.484 9.05543 122.053 8.7255C122.622 8.39556 123.242 8.23059 123.912 8.23059Z" fill="#3A3B7B"/>
</g>
<defs>
<clipPath id="clip0_158_1114">
<rect width="127.167" height="22.2955" fill="white" transform="translate(0.878662 0.973511)"/>
</clipPath>
</defs>
</svg>
