<svg width="142" height="35" viewBox="0 0 142 35" fill="none" xmlns="http://www.w3.org/2000/svg">
<g clip-path="url(#clip0_158_989)">
<path d="M43.7559 23.4285H53.6253V20.4558H47.2637V9.25854H43.7559V23.4285Z" fill="#340E0E"/>
<path d="M59.4729 21.4466C58.0658 21.4466 57.3325 20.2178 57.3325 18.3748C57.3325 16.5317 58.0658 15.2831 59.4729 15.2831C60.88 15.2831 61.633 16.5317 61.633 18.3748C61.633 20.2178 60.88 21.4466 59.4729 21.4466ZM59.4927 23.7455C62.7627 23.7455 64.903 21.4268 64.903 18.3748C64.903 15.3228 62.7627 13.004 59.4927 13.004C56.2425 13.004 54.0625 15.3228 54.0625 18.3748C54.0625 21.4268 56.2425 23.7455 59.4927 23.7455Z" fill="#340E0E"/>
<path d="M70.5632 26.9363C72.0694 26.9363 73.3972 26.5993 74.289 25.8066C75.1015 25.0733 75.6366 23.9635 75.6366 22.4375V13.2815H72.545V14.3715H72.5054C71.9108 13.5193 70.9992 12.9843 69.6515 12.9843C67.1346 12.9843 65.3906 15.085 65.3906 18.0577C65.3906 21.1692 67.5112 22.8735 69.7903 22.8735C71.019 22.8735 71.7919 22.3781 72.3864 21.7043H72.4657V22.715C72.4657 23.9437 71.891 24.6572 70.5235 24.6572C69.4534 24.6572 68.9183 24.2013 68.7399 23.6663H65.6086C65.9257 25.7868 67.7688 26.9363 70.5632 26.9363ZM70.5434 20.4755C69.3344 20.4755 68.5417 19.4846 68.5417 17.9586C68.5417 16.4128 69.3344 15.4219 70.5434 15.4219C71.891 15.4219 72.6044 16.5713 72.6044 17.9388C72.6044 19.3657 71.9504 20.4755 70.5434 20.4755Z" fill="#340E0E"/>
<path d="M81.9934 21.4466C80.5863 21.4466 79.853 20.2178 79.853 18.3748C79.853 16.5317 80.5863 15.2831 81.9934 15.2831C83.4005 15.2831 84.1536 16.5317 84.1536 18.3748C84.1536 20.2178 83.4005 21.4466 81.9934 21.4466ZM82.0132 23.7455C85.2832 23.7455 87.4236 21.4268 87.4236 18.3748C87.4236 15.3228 85.2832 13.004 82.0132 13.004C78.763 13.004 76.583 15.3228 76.583 18.3748C76.583 21.4268 78.763 23.7455 82.0132 23.7455Z" fill="#340E0E"/>
<path d="M88.3667 23.4285H91.5971V13.2816H88.3667V23.4285ZM88.3667 11.8745H91.5971V9.25854H88.3667V11.8745Z" fill="#340E0E"/>
<path d="M92.999 26.7777H96.2294V22.3781H96.269C96.9032 23.2303 97.8347 23.7455 99.1427 23.7455C101.798 23.7455 103.562 21.6448 103.562 18.355C103.562 15.303 101.917 12.9843 99.2219 12.9843C97.8347 12.9843 96.8437 13.5986 96.1501 14.5103H96.0907V13.2815H92.999V26.7777ZM98.3103 21.2484C96.923 21.2484 96.1303 20.1188 96.1303 18.4739C96.1303 16.829 96.8437 15.5804 98.2508 15.5804C99.6381 15.5804 100.292 16.7299 100.292 18.4739C100.292 20.1981 99.539 21.2484 98.3103 21.2484Z" fill="#340E0E"/>
<path d="M108.821 23.7455C111.477 23.7455 113.439 22.5961 113.439 20.3764C113.439 17.7803 111.338 17.3244 109.555 17.0272C108.267 16.7893 107.117 16.6903 107.117 15.9768C107.117 15.3426 107.731 15.0453 108.524 15.0453C109.416 15.0453 110.03 15.3228 110.149 16.2344H113.122C112.963 14.2328 111.418 12.9843 108.544 12.9843C106.146 12.9843 104.164 14.0941 104.164 16.2344C104.164 18.6126 106.047 19.0883 107.811 19.3855C109.158 19.6233 110.387 19.7224 110.387 20.6341C110.387 21.2881 109.773 21.6448 108.802 21.6448C107.731 21.6448 107.058 21.1493 106.939 20.1386H103.887C103.986 22.3781 105.849 23.7455 108.821 23.7455Z" fill="#340E0E"/>
<path d="M117.827 23.7258C119.234 23.7258 120.126 23.1709 120.859 22.18H120.919V23.4285H124.01V13.2816H120.78V18.9496C120.78 20.1585 120.106 20.9909 118.996 20.9909C117.966 20.9909 117.47 20.3765 117.47 19.2667V13.2816H114.26V19.9405C114.26 22.1998 115.488 23.7258 117.827 23.7258Z" fill="#340E0E"/>
<path d="M125.415 23.4284H128.645V17.7406C128.645 16.5317 129.24 15.6795 130.251 15.6795C131.222 15.6795 131.678 16.3137 131.678 17.4037V23.4284H134.908V17.7406C134.908 16.5317 135.483 15.6795 136.513 15.6795C137.484 15.6795 137.94 16.3137 137.94 17.4037V23.4284H141.17V16.829C141.17 14.5499 140.021 12.9843 137.722 12.9843C136.414 12.9843 135.324 13.5392 134.531 14.7679H134.492C133.976 13.6779 132.966 12.9843 131.638 12.9843C130.171 12.9843 129.2 13.6779 128.566 14.7283H128.507V13.2815H125.415V23.4284Z" fill="#340E0E"/>
<path fill-rule="evenodd" clip-rule="evenodd" d="M18.0122 33.3375C27.1333 33.3375 34.5274 25.9434 34.5274 16.8224C34.5274 7.70134 27.1333 0.307251 18.0122 0.307251C8.89114 0.307251 1.49707 7.70134 1.49707 16.8224C1.49707 25.9434 8.89114 33.3375 18.0122 33.3375ZM23.1644 8.0007C23.4152 7.10988 22.5507 6.58311 21.7612 7.1456L10.7399 14.9971C9.88364 15.6071 10.0183 16.8224 10.9422 16.8224H13.8444V16.7999H19.5007L14.8919 18.4261L12.8601 25.6441C12.6093 26.5349 13.4737 27.0617 14.2633 26.4992L25.2846 18.6477C26.1408 18.0377 26.0061 16.8224 25.0823 16.8224H20.6812L23.1644 8.0007Z" fill="#F15757"/>
</g>
<defs>
<clipPath id="clip0_158_989">
<rect width="140.379" height="33.8561" fill="white" transform="translate(0.932129 0.193237)"/>
</clipPath>
</defs>
</svg>
