<svg width="129" height="29" viewBox="0 0 129 29" fill="none" xmlns="http://www.w3.org/2000/svg">
<path d="M38.1665 18.821C38.1665 19.4339 38.0407 19.9048 37.7891 20.2338C37.544 20.5629 37.1343 20.7274 36.5602 20.7274C36.0182 20.7274 35.6344 20.5629 35.4086 20.2338C35.1892 19.9048 35.0796 19.4339 35.0796 18.821V8.59263C35.0796 7.97975 35.1892 7.50882 35.4086 7.1798C35.6344 6.85079 36.0182 6.68628 36.5602 6.68628C37.1343 6.68628 37.544 6.85079 37.7891 7.1798C38.0407 7.50882 38.1665 7.97975 38.1665 8.59263V18.821Z" fill="#09355D"/>
<path d="M39.1035 15.8503C39.1035 15.1664 39.2132 14.5213 39.4326 13.9148C39.6583 13.302 39.9938 12.7665 40.4389 12.3085C40.8905 11.8505 41.4518 11.486 42.1227 11.215C42.8001 10.944 43.5936 10.8086 44.5032 10.8086C45.3742 10.8086 46.1451 10.9344 46.816 11.186C47.4869 11.4376 48.0514 11.7892 48.5094 12.2408C48.9674 12.6859 49.3158 13.2181 49.5546 13.8374C49.7932 14.4503 49.9126 15.1212 49.9126 15.8503C49.9126 16.5276 49.7996 17.1695 49.5739 17.7759C49.3481 18.3758 49.0094 18.9049 48.5578 19.3629C48.1063 19.8145 47.5418 20.1757 46.8644 20.4468C46.1869 20.7112 45.3999 20.8434 44.5032 20.8434C43.6194 20.8434 42.8388 20.7177 42.1614 20.4661C41.4904 20.208 40.926 19.8564 40.468 19.4113C40.0164 18.9597 39.6744 18.4307 39.4422 17.8243C39.2164 17.2114 39.1035 16.5534 39.1035 15.8503ZM42.3259 15.8503C42.3259 16.276 42.3646 16.6825 42.4421 17.0695C42.5194 17.4501 42.642 17.7856 42.8098 18.0759C42.9839 18.3662 43.2098 18.5985 43.4871 18.7726C43.7646 18.9403 44.1032 19.0242 44.5032 19.0242C44.8709 19.0242 45.1903 18.9468 45.4612 18.7919C45.7386 18.6372 45.9644 18.421 46.1386 18.1436C46.3192 17.8663 46.4547 17.534 46.545 17.1469C46.6353 16.7534 46.6805 16.3212 46.6805 15.8503C46.6805 15.4244 46.6386 15.0212 46.5547 14.6406C46.4773 14.2536 46.3515 13.9148 46.1773 13.6245C46.0031 13.3278 45.7774 13.0955 45.4999 12.9278C45.229 12.7537 44.8967 12.6665 44.5032 12.6665C44.1097 12.6665 43.7742 12.7504 43.4968 12.9182C43.2194 13.0859 42.9937 13.3149 42.8194 13.6052C42.6453 13.8955 42.5194 14.2342 42.4421 14.6213C42.3646 15.0083 42.3259 15.418 42.3259 15.8503Z" fill="#09355D"/>
<path d="M57.8555 18.8598C57.6813 19.1824 57.4684 19.4565 57.2168 19.6824C56.9717 19.9081 56.6975 20.0952 56.3943 20.2436C56.0976 20.3855 55.7782 20.4919 55.4363 20.5629C55.1008 20.6274 54.7557 20.6597 54.4009 20.6597C53.8073 20.6597 53.2655 20.5533 52.7751 20.3403C52.2849 20.1274 51.8623 19.821 51.5075 19.4211C51.1591 19.0146 50.8882 18.5179 50.6946 17.9308C50.5011 17.3437 50.4043 16.6728 50.4043 15.9181C50.4043 15.2084 50.4946 14.5439 50.6753 13.9246C50.8559 13.3053 51.1172 12.7666 51.4591 12.3086C51.8075 11.8505 52.2333 11.4893 52.7365 11.2248C53.2396 10.9603 53.8138 10.828 54.4589 10.828C55.1943 10.828 55.846 10.97 56.4137 11.2538C56.9878 11.5377 57.4814 12.0021 57.8942 12.6472V12.3957C57.8942 11.9312 58.02 11.5828 58.2716 11.3505C58.5297 11.1119 58.8845 10.9925 59.3361 10.9925C59.607 10.9925 59.836 11.0377 60.0231 11.128C60.2102 11.2119 60.3586 11.3409 60.4682 11.5151C60.578 11.6828 60.6553 11.8925 60.7005 12.1441C60.7521 12.3892 60.7779 12.6699 60.7779 12.986V19.4695C60.7779 20.2565 60.678 20.9596 60.478 21.579C60.2844 22.1983 59.9812 22.7209 59.5683 23.1467C59.1554 23.5724 58.6264 23.895 57.9813 24.1144C57.3362 24.3401 56.5685 24.453 55.6782 24.453C55.0525 24.453 54.4977 24.424 54.0138 24.3659C53.5364 24.3144 53.1235 24.2337 52.7751 24.124C52.4268 24.0014 52.1623 23.866 51.9817 23.7176C51.8075 23.5692 51.7204 23.3756 51.7204 23.137C51.7204 23.0015 51.7397 22.8725 51.7784 22.7499C51.8172 22.6273 51.8752 22.5177 51.9526 22.4209C52.0365 22.3306 52.1429 22.2564 52.272 22.1983C52.4074 22.1467 52.5719 22.1209 52.7655 22.1209C52.9719 22.1209 53.1783 22.1338 53.3848 22.1596C53.5977 22.1854 53.8171 22.2112 54.0428 22.237C54.275 22.2693 54.517 22.2983 54.7686 22.3241C55.0266 22.3499 55.304 22.3628 55.6008 22.3628C55.9556 22.3628 56.2717 22.3273 56.5492 22.2564C56.8265 22.1854 57.062 22.0596 57.2555 21.879C57.4491 21.6984 57.5975 21.4564 57.7007 21.1532C57.8039 20.8564 57.8555 20.4758 57.8555 20.0113V18.8598ZM57.8555 15.8503C57.8555 15.3793 57.82 14.9504 57.7491 14.5633C57.6846 14.1762 57.5716 13.8472 57.4104 13.5762C57.2491 13.2988 57.033 13.086 56.7621 12.9376C56.491 12.7827 56.1524 12.7054 55.746 12.7054C55.346 12.7054 55.0138 12.786 54.7493 12.9472C54.4912 13.1085 54.2848 13.3311 54.1299 13.6149C53.9751 13.8988 53.8655 14.231 53.8009 14.6117C53.7428 14.9923 53.7139 15.3987 53.7139 15.8309C53.7139 16.818 53.888 17.5599 54.2364 18.0566C54.5847 18.5534 55.0911 18.8018 55.7556 18.8018C56.0653 18.7953 56.346 18.7372 56.5975 18.6275C56.8555 18.5114 57.0782 18.3341 57.2652 18.0953C57.4523 17.8566 57.5975 17.5534 57.7007 17.1857C57.8039 16.818 57.8555 16.3729 57.8555 15.8503Z" fill="#09355D"/>
<path d="M61.667 15.8503C61.667 15.1664 61.7767 14.5213 61.996 13.9148C62.2218 13.302 62.5572 12.7665 63.0024 12.3085C63.454 11.8505 64.0152 11.486 64.6861 11.215C65.3636 10.944 66.157 10.8086 67.0667 10.8086C67.9375 10.8086 68.7085 10.9344 69.3794 11.186C70.0503 11.4376 70.6148 11.7892 71.0729 12.2408C71.5309 12.6859 71.8793 13.2181 72.1179 13.8374C72.3567 14.4503 72.476 15.1212 72.476 15.8503C72.476 16.5276 72.3631 17.1695 72.1373 17.7759C71.9115 18.3758 71.5729 18.9049 71.1213 19.3629C70.6696 19.8145 70.1052 20.1757 69.4278 20.4468C68.7504 20.7112 67.9634 20.8434 67.0667 20.8434C66.1828 20.8434 65.4022 20.7177 64.7249 20.4661C64.0539 20.208 63.4894 19.8564 63.0314 19.4113C62.5799 18.9597 62.2379 18.4307 62.0056 17.8243C61.7799 17.2114 61.667 16.5534 61.667 15.8503ZM64.8893 15.8503C64.8893 16.276 64.9281 16.6825 65.0055 17.0695C65.0829 17.4501 65.2054 17.7856 65.3732 18.0759C65.5474 18.3662 65.7731 18.5985 66.0506 18.7726C66.328 18.9403 66.6667 19.0242 67.0667 19.0242C67.4344 19.0242 67.7537 18.9468 68.0247 18.7919C68.302 18.6372 68.5279 18.421 68.702 18.1436C68.8827 17.8663 69.0181 17.534 69.1085 17.1469C69.1988 16.7534 69.244 16.3212 69.244 15.8503C69.244 15.4244 69.202 15.0212 69.1181 14.6406C69.0408 14.2536 68.9149 13.9148 68.7408 13.6245C68.5666 13.3278 68.3408 13.0955 68.0634 12.9278C67.7925 12.7537 67.4602 12.6665 67.0667 12.6665C66.6731 12.6665 66.3376 12.7504 66.0603 12.9182C65.7829 13.0859 65.5571 13.3149 65.3829 13.6052C65.2087 13.8955 65.0829 14.2342 65.0055 14.6213C64.9281 15.0083 64.8893 15.418 64.8893 15.8503Z" fill="#09355D"/>
<path d="M76.6258 7.54755C76.6258 7.76045 76.5774 7.95075 76.4807 8.11849C76.3839 8.27977 76.2581 8.41521 76.1033 8.52495C75.9485 8.63461 75.7678 8.71842 75.5613 8.77648C75.3614 8.82808 75.155 8.85393 74.942 8.85393C74.7163 8.85393 74.5002 8.82486 74.2937 8.76681C74.0937 8.70876 73.9164 8.62495 73.7615 8.51521C73.6067 8.3991 73.4841 8.26041 73.3937 8.09913C73.3035 7.93785 73.2583 7.75399 73.2583 7.54755C73.2583 7.36047 73.3003 7.18951 73.3841 7.03468C73.4744 6.8734 73.5937 6.7347 73.7421 6.61857C73.8905 6.50245 74.068 6.41213 74.2744 6.34762C74.4808 6.28311 74.7066 6.25085 74.9518 6.25085C75.1646 6.25085 75.3711 6.27989 75.5711 6.33795C75.7775 6.39601 75.9581 6.47987 76.1129 6.58955C76.2678 6.69922 76.3904 6.83469 76.4807 6.99597C76.5774 7.15726 76.6258 7.34111 76.6258 7.54755ZM76.4807 18.8211C76.4807 19.434 76.3549 19.9049 76.1033 20.2339C75.8581 20.5629 75.4485 20.7274 74.8743 20.7274C74.3324 20.7274 73.9486 20.5629 73.7228 20.2339C73.5035 19.9049 73.3937 19.434 73.3937 18.8211V12.8988C73.3937 12.2859 73.5035 11.815 73.7228 11.486C73.9486 11.1571 74.3324 10.9925 74.8743 10.9925C75.4485 10.9925 75.8581 11.1571 76.1033 11.486C76.3549 11.815 76.4807 12.2859 76.4807 12.8988V18.8211Z" fill="#09355D"/>
<path d="M80.9306 15.8309C80.9306 16.2632 80.9628 16.6664 81.0274 17.0406C81.0983 17.4147 81.2144 17.7437 81.3757 18.0276C81.5435 18.305 81.7628 18.5243 82.0337 18.6856C82.3111 18.8469 82.653 18.9275 83.0595 18.9275C83.4336 18.9275 83.7465 18.8502 83.9983 18.6953C84.256 18.5341 84.4624 18.3147 84.6177 18.0373C84.7721 17.7534 84.8819 17.4212 84.9463 17.0406C85.0173 16.6599 85.0528 16.247 85.0528 15.802C85.0528 15.4471 85.0272 15.0859 84.9752 14.7181C84.924 14.3439 84.8274 14.0053 84.6854 13.7021C84.5434 13.3988 84.3468 13.1504 84.095 12.9569C83.8431 12.7634 83.5145 12.6666 83.1079 12.6666C82.7014 12.6666 82.3562 12.7311 82.0724 12.8602C81.795 12.9892 81.5692 13.186 81.3951 13.4504C81.2273 13.7149 81.108 14.0472 81.037 14.4471C80.966 14.8407 80.9306 15.302 80.9306 15.8309ZM80.9209 12.8988C81.0822 12.557 81.2886 12.257 81.5402 11.9989C81.7918 11.7409 82.0692 11.5248 82.3724 11.3505C82.6756 11.1764 82.9917 11.0473 83.3207 10.9635C83.6565 10.8732 83.9884 10.828 84.3171 10.828C84.9108 10.828 85.4467 10.9603 85.924 11.2248C86.4013 11.4893 86.8076 11.8505 87.1428 12.3086C87.4847 12.7602 87.7465 13.2956 87.9273 13.9149C88.1073 14.5278 88.1982 15.1859 88.1982 15.889C88.1982 16.618 88.1007 17.2857 87.9075 17.8921C87.7209 18.4985 87.4525 19.0211 87.104 19.4597C86.7622 19.892 86.3493 20.2307 85.8654 20.4758C85.3881 20.721 84.8563 20.8435 84.2692 20.8435C83.5467 20.8435 82.9014 20.6758 82.3337 20.3403C81.766 20.0049 81.2951 19.534 80.9209 18.9275V22.4112C80.9209 23.024 80.7951 23.495 80.5435 23.824C80.2983 24.153 79.8887 24.3176 79.3145 24.3176C78.7726 24.3176 78.3887 24.153 78.163 23.824C77.9437 23.495 77.834 23.024 77.834 22.4112V12.8988C77.834 12.286 77.9437 11.815 78.163 11.486C78.3887 11.1571 78.7726 10.9925 79.3145 10.9925C79.8887 10.9925 80.2983 11.1571 80.5435 11.486C80.7951 11.815 80.9209 12.286 80.9209 12.8988Z" fill="#09355D"/>
<path d="M91.6027 13.5859C91.6027 13.8374 91.7125 14.0342 91.9313 14.1761C92.151 14.3116 92.454 14.4245 92.8413 14.5148C93.2088 14.5987 93.5861 14.6793 93.9734 14.7567C94.3607 14.8342 94.7381 14.9245 95.1055 15.0277C95.473 15.1244 95.8182 15.2406 96.141 15.376C96.4631 15.5115 96.7471 15.6825 96.9924 15.8889C97.2376 16.0889 97.4309 16.3341 97.5729 16.6243C97.7149 16.9082 97.7859 17.2502 97.7859 17.6501C97.7859 18.1533 97.6827 18.6017 97.4763 18.9952C97.2698 19.3823 96.9767 19.7113 96.596 19.9823C96.222 20.2532 95.7736 20.4629 95.2509 20.6112C94.7282 20.7596 94.151 20.837 93.5184 20.8434C92.9189 20.8434 92.3409 20.8048 91.786 20.7273C91.2319 20.6564 90.7381 20.5435 90.3054 20.3886C89.8801 20.2338 89.5383 20.0435 89.2798 19.8177C89.0222 19.5855 88.8934 19.3146 88.8934 19.0049C88.8934 18.7339 88.9801 18.5242 89.1543 18.3758C89.3285 18.2275 89.5507 18.1533 89.8223 18.1533C89.9256 18.1533 90.0478 18.1726 90.1898 18.2113C90.3318 18.2501 90.4862 18.2985 90.6539 18.3565C90.8215 18.4146 90.999 18.4791 91.1865 18.5501C91.3797 18.6146 91.5795 18.6726 91.786 18.7242C92.0444 18.7952 92.3087 18.8533 92.5795 18.8985C92.857 18.9371 93.1411 18.9565 93.4317 18.9565C93.6117 18.9565 93.7893 18.9403 93.9635 18.9081C94.1377 18.8694 94.293 18.8146 94.4284 18.7436C94.5704 18.6662 94.686 18.5694 94.7769 18.4533C94.8669 18.3372 94.9214 18.1952 94.9412 18.0275C94.9602 17.9888 94.9767 17.9501 94.9891 17.9113C95.0023 17.8727 95.0089 17.8275 95.0089 17.7759C95.0089 17.5952 94.9247 17.434 94.7571 17.292C94.596 17.1502 94.3665 17.0372 94.07 16.9534C93.5729 16.8373 93.0989 16.7308 92.6472 16.6341C92.1964 16.5373 91.7769 16.4341 91.3896 16.3244C91.0089 16.2147 90.6605 16.0889 90.3442 15.947C90.0345 15.8051 89.7703 15.6309 89.5507 15.4244C89.3384 15.218 89.17 14.9696 89.0478 14.6793C88.9313 14.389 88.8735 14.0374 88.8735 13.6245C88.8735 13.1794 88.9735 12.7826 89.1733 12.4343C89.3797 12.0794 89.6737 11.7827 90.0544 11.544C90.435 11.3053 90.8958 11.1247 91.4383 11.0022C91.98 10.8731 92.5927 10.8086 93.2765 10.8086C94.5019 10.8086 95.4342 10.957 96.0733 11.2537C96.7182 11.544 97.0411 11.9246 97.0411 12.3956C97.0411 12.6601 96.9536 12.8633 96.7793 13.0052C96.6051 13.1407 96.3954 13.2084 96.1509 13.2084C96.0213 13.2084 95.8859 13.1859 95.7438 13.1407C95.6084 13.0891 95.4441 13.0343 95.2509 12.9762C95.0568 12.9117 94.8248 12.8569 94.5539 12.8117C94.2897 12.7601 93.9602 12.7343 93.5671 12.7343C93.2699 12.7343 92.999 12.7471 92.7538 12.773C92.5151 12.7988 92.3087 12.8439 92.1344 12.9084C91.9668 12.973 91.8347 13.06 91.7381 13.1698C91.6473 13.2794 91.6027 13.4181 91.6027 13.5859Z" fill="#09355D"/>
<path d="M101.713 17.1372C101.713 17.4404 101.752 17.7049 101.83 17.9308C101.913 18.1565 102.026 18.3469 102.168 18.5017C102.31 18.6501 102.474 18.763 102.661 18.8403C102.855 18.9114 103.062 18.9469 103.28 18.9469C103.539 18.9469 103.787 18.9081 104.026 18.8307C104.265 18.7533 104.474 18.6339 104.655 18.4726C104.842 18.3114 104.991 18.1082 105.1 17.863C105.209 17.6179 105.265 17.3308 105.265 17.0018V12.8988C105.265 12.2859 105.375 11.815 105.593 11.486C105.82 11.157 106.204 10.9924 106.745 10.9924C107.319 10.9924 107.729 11.157 107.974 11.486C108.226 11.815 108.351 12.2859 108.351 12.8988V18.821C108.351 19.4339 108.226 19.9048 107.974 20.2338C107.729 20.5629 107.319 20.7274 106.745 20.7274C106.204 20.7274 105.82 20.5629 105.593 20.2338C105.375 19.9048 105.265 19.4339 105.265 18.821C105.129 19.1178 104.952 19.3887 104.732 19.6339C104.519 19.8791 104.268 20.0919 103.977 20.2725C103.693 20.4468 103.378 20.5822 103.029 20.679C102.688 20.7758 102.316 20.8241 101.916 20.8241C101.484 20.8241 101.068 20.7499 100.668 20.6016C100.275 20.4468 99.9262 20.2209 99.6231 19.9242C99.3201 19.621 99.0782 19.2468 98.8973 18.8017C98.7165 18.3565 98.6265 17.8372 98.6265 17.2437V12.8988C98.6265 12.2859 98.7363 11.815 98.9551 11.486C99.1814 11.157 99.5645 10.9924 100.107 10.9924C100.681 10.9924 101.091 11.157 101.336 11.486C101.588 11.815 101.713 12.2859 101.713 12.8988V17.1372Z" fill="#09355D"/>
<path d="M109.753 12.8988C109.753 12.286 109.863 11.815 110.082 11.486C110.308 11.1571 110.692 10.9925 111.233 10.9925C111.808 10.9925 112.218 11.1571 112.463 11.486C112.714 11.815 112.84 12.286 112.84 12.8988C112.969 12.5892 113.143 12.3086 113.363 12.057C113.588 11.7989 113.843 11.5796 114.127 11.3989C114.417 11.2183 114.73 11.0796 115.066 10.9828C115.401 10.8796 115.749 10.828 116.111 10.828C116.446 10.828 116.775 10.8732 117.098 10.9635C117.426 11.0473 117.73 11.1861 118.008 11.3796C118.291 11.5666 118.54 11.8054 118.753 12.0957C118.966 12.386 119.13 12.7343 119.246 13.1408C119.446 12.7086 119.682 12.3441 119.952 12.0473C120.223 11.7505 120.517 11.5118 120.833 11.3312C121.149 11.1505 121.478 11.0216 121.82 10.9441C122.169 10.8667 122.516 10.828 122.865 10.828C123.278 10.828 123.672 10.9022 124.046 11.0505C124.426 11.1989 124.758 11.4248 125.042 11.728C125.333 12.0247 125.562 12.4021 125.729 12.8602C125.904 13.3117 125.99 13.8408 125.99 14.4471V18.8211C125.99 19.434 125.865 19.9049 125.613 20.2339C125.369 20.5629 124.958 20.7274 124.384 20.7274C123.843 20.7274 123.459 20.5629 123.233 20.2339C123.014 19.9049 122.904 19.434 122.904 18.8211V14.5826C122.904 14.2923 122.865 14.0343 122.788 13.8085C122.71 13.5762 122.601 13.3827 122.459 13.2279C122.323 13.0666 122.162 12.9472 121.975 12.8699C121.788 12.786 121.587 12.744 121.375 12.744C121.11 12.744 120.859 12.786 120.62 12.8699C120.382 12.9537 120.172 13.0827 119.991 13.2569C119.817 13.4311 119.675 13.6537 119.565 13.9246C119.462 14.1955 119.411 14.5214 119.411 14.902V18.8211C119.411 19.434 119.284 19.9049 119.033 20.2339C118.788 20.5629 118.379 20.7274 117.804 20.7274C117.262 20.7274 116.878 20.5629 116.653 20.2339C116.433 19.9049 116.323 19.434 116.323 18.8211V14.7665C116.323 14.102 116.185 13.5988 115.908 13.2569C115.636 12.915 115.265 12.744 114.795 12.744C114.517 12.744 114.259 12.7892 114.02 12.8795C113.782 12.9699 113.575 13.1021 113.401 13.2763C113.227 13.4504 113.088 13.6665 112.985 13.9246C112.888 14.1826 112.84 14.4794 112.84 14.8148V18.8211C112.84 19.434 112.714 19.9049 112.463 20.2339C112.218 20.5629 111.808 20.7274 111.233 20.7274C110.692 20.7274 110.308 20.5629 110.082 20.2339C109.863 19.9049 109.753 19.434 109.753 18.8211V12.8988Z" fill="#09355D"/>
<path d="M14.955 19.0758C12.2187 19.0758 10.0005 16.8576 10.0005 14.1213C10.0005 11.385 12.2187 9.16675 14.955 9.16675C17.6913 9.16675 19.9096 11.385 19.9096 14.1213C19.9096 16.8576 17.6913 19.0758 14.955 19.0758Z" fill="#51A3EE"/>
<path d="M5.35665 15.8137C3.92086 16.0669 2.93671 17.4538 3.48786 18.8036C4.25734 20.688 5.48493 22.3669 7.07642 23.6789C9.35214 25.5548 12.2225 26.5572 15.1713 26.5057C18.12 26.4543 20.9537 25.3523 23.1626 23.3981C24.7073 22.0314 25.8755 20.3106 26.5788 18.4006C27.0826 17.0324 26.0505 15.6806 24.6068 15.4777C23.1631 15.2748 21.8668 16.3257 21.1537 17.5974C20.7672 18.2866 20.2653 18.912 19.6642 19.4438C18.3968 20.5651 16.771 21.1973 15.0792 21.2269C13.3873 21.2564 11.7404 20.6813 10.4347 19.6049C9.8153 19.0944 9.29202 18.4869 8.88164 17.8116C8.12459 16.5656 6.79244 15.5605 5.35665 15.8137Z" fill="#51A3EE"/>
<path d="M27.2453 15.6692C27.3086 15.1621 27.3411 14.6455 27.3411 14.1213C27.3411 7.28055 21.7955 1.73499 14.9547 1.73499C8.11392 1.73499 2.56836 7.28055 2.56836 14.1213C2.56836 14.7941 2.62199 15.4543 2.72522 16.098C3.29415 15.3191 4.1821 14.7631 5.14122 14.594C6.17894 14.411 7.12207 14.6627 7.91949 15.1331C7.87238 14.8027 7.84801 14.4649 7.84801 14.1213C7.84801 10.1964 11.0298 7.01463 14.9547 7.01463C18.8796 7.01463 22.0614 10.1964 22.0614 14.1213C22.0614 14.3801 22.0476 14.6357 22.0206 14.8873C22.8012 14.3891 23.7352 14.1045 24.7788 14.2512C25.743 14.3867 26.6495 14.9111 27.2453 15.6692Z" fill="#0E4F8B"/>
</svg>
