<svg width="129" height="34" viewBox="0 0 129 34" fill="none" xmlns="http://www.w3.org/2000/svg">
<g clip-path="url(#clip0_158_1030)">
<path d="M43.4653 9.09827H40.5073V22.4452H48.6959V19.83H43.4653V9.09827Z" fill="#243A5A"/>
<path d="M48.9785 17.9181C48.9785 20.7679 50.8904 22.6617 53.7762 22.6617C56.6439 22.6617 58.5558 20.7679 58.5558 17.9181C58.5558 15.0684 56.6439 13.1565 53.7762 13.1565C50.8904 13.1565 48.9785 15.0684 48.9785 17.9181ZM51.7741 17.9001C51.7741 16.5474 52.5678 15.6456 53.7762 15.6456C54.9666 15.6456 55.7602 16.5474 55.7602 17.9001C55.7602 19.2709 54.9666 20.1727 53.7762 20.1727C52.5678 20.1727 51.7741 19.2709 51.7741 17.9001Z" fill="#243A5A"/>
<path d="M59.0024 17.7738C59.0024 20.4972 60.77 22.3369 63.277 22.3369C64.4855 22.3369 65.5316 21.904 66.0546 21.2006V22.4451C66.0546 23.6896 65.2791 24.5193 63.9083 24.5193C62.6818 24.5193 61.8341 23.9422 61.78 22.9141H58.9663C59.2188 25.3851 61.1307 27.0444 63.746 27.0444C66.8302 27.0444 68.7781 25.0424 68.7781 21.8679V13.427H66.271L66.1268 14.3468C65.6217 13.6073 64.5576 13.1204 63.3312 13.1204C60.806 13.1204 59.0024 15.0142 59.0024 17.7738ZM61.8161 17.7016C61.8161 16.4029 62.6818 15.5372 63.782 15.5372C65.0626 15.5372 66.0005 16.3849 66.0005 17.7016C66.0005 19.0183 65.0806 19.9201 63.8 19.9201C62.6999 19.9201 61.8161 19.0183 61.8161 17.7016Z" fill="#243A5A"/>
<path d="M69.5879 17.9181C69.5879 20.7679 71.4998 22.6617 74.3856 22.6617C77.2534 22.6617 79.1652 20.7679 79.1652 17.9181C79.1652 15.0684 77.2534 13.1565 74.3856 13.1565C71.4998 13.1565 69.5879 15.0684 69.5879 17.9181ZM72.3836 17.9001C72.3836 16.5474 73.1771 15.6456 74.3856 15.6456C75.576 15.6456 76.3696 16.5474 76.3696 17.9001C76.3696 19.2709 75.576 20.1727 74.3856 20.1727C73.1771 20.1727 72.3836 19.2709 72.3836 17.9001Z" fill="#243A5A"/>
<path d="M81.5598 12.0201C82.4256 12.0201 83.129 11.3167 83.129 10.433C83.129 9.54915 82.4256 8.86377 81.5598 8.86377C80.676 8.86377 79.9727 9.54915 79.9727 10.433C79.9727 11.3167 80.676 12.0201 81.5598 12.0201ZM80.153 22.4452H82.9487V13.427H80.153V22.4452Z" fill="#243A5A"/>
<path d="M84.5762 26.7738H87.3177V21.5433C87.8404 22.2287 89.0311 22.6976 90.2756 22.6976C92.9626 22.6976 94.586 20.6415 94.5142 17.7917C94.4415 14.8878 92.7644 13.1383 90.2574 13.1383C88.9766 13.1383 87.7686 13.6974 87.2632 14.5271L87.1187 13.4269H84.5762V26.7738ZM87.3714 17.936C87.3714 16.5833 88.2731 15.6815 89.572 15.6815C90.8883 15.6815 91.7182 16.6013 91.7182 17.936C91.7182 19.2707 90.8883 20.1905 89.572 20.1905C88.2731 20.1905 87.3714 19.2887 87.3714 17.936Z" fill="#243A5A"/>
<path d="M94.8101 19.5953C94.8819 21.417 96.3253 22.6795 98.5978 22.6795C100.78 22.6795 102.296 21.5252 102.296 19.6675C102.296 18.3328 101.502 17.449 100.022 17.0882L98.4178 16.6915C97.8406 16.5472 97.4797 16.4029 97.4797 15.9339C97.4797 15.465 97.8579 15.1584 98.4178 15.1584C99.0487 15.1584 99.4632 15.5732 99.4459 16.1864H101.953C101.88 14.3106 100.456 13.1383 98.4715 13.1383C96.4698 13.1383 94.9727 14.3287 94.9727 16.1323C94.9727 17.3408 95.6399 18.3328 97.4252 18.8018L99.0123 19.2165C99.4814 19.3428 99.6795 19.5592 99.6795 19.8658C99.6795 20.3168 99.265 20.6054 98.5615 20.6054C97.7498 20.6054 97.3171 20.2266 97.3171 19.5953H94.8101Z" fill="#243A5A"/>
<path d="M106.547 22.6796C107.647 22.6796 108.747 22.1746 109.306 21.4351L109.487 22.4452H112.102V13.427H109.325V18.1165C109.325 19.4692 108.928 20.2086 107.647 20.2086C106.655 20.2086 106.006 19.7578 106.006 18.0804V13.427H103.228V19.0904C103.228 21.2368 104.419 22.6796 106.547 22.6796Z" fill="#243A5A"/>
<path d="M116.507 22.4451V17.5212C116.507 16.0061 117.319 15.5733 118.112 15.5733C118.996 15.5733 119.573 16.1144 119.573 17.2326V22.4451H122.315V17.5212C122.315 15.9881 123.108 15.5553 123.902 15.5553C124.785 15.5553 125.381 16.0963 125.381 17.2326V22.4451H128.087V16.5473C128.087 14.4911 127.004 13.1204 124.677 13.1204C123.379 13.1204 122.315 13.7516 121.845 14.7256C121.305 13.7516 120.367 13.1204 118.869 13.1204C117.878 13.1204 116.958 13.5712 116.417 14.2927L116.309 13.427H113.711V22.4451H116.507Z" fill="#243A5A"/>
<path d="M0.871094 17.1212C0.871094 9.33591 0.871094 5.44325 3.28968 3.02467C5.70827 0.606079 9.60092 0.606079 17.3862 0.606079C25.1716 0.606079 29.0642 0.606079 31.4828 3.02467C33.9014 5.44325 33.9014 9.33591 33.9014 17.1212C33.9014 24.9066 33.9014 28.7992 31.4828 31.2178C29.0642 33.6364 25.1716 33.6364 17.3862 33.6364C9.60092 33.6364 5.70827 33.6364 3.28968 31.2178C0.871094 28.7992 0.871094 24.9066 0.871094 17.1212Z" fill="#243A5A"/>
<path d="M20.6892 22.0759C21.1453 22.0759 21.5233 22.4493 21.4327 22.8962C21.2726 23.6857 20.8837 24.4174 20.3056 24.9954C19.5314 25.7697 18.4812 26.2047 17.3862 26.2047C16.2911 26.2047 15.241 25.7697 14.4667 24.9954C13.8887 24.4174 13.4997 23.6857 13.3397 22.8962C13.249 22.4493 13.6271 22.0759 14.0831 22.0759H20.6892Z" fill="#2DF8BB"/>
<path d="M22.425 15.2853C21.9844 15.4033 21.7147 15.8641 21.938 16.2618C22.1731 16.6802 22.4983 17.0455 22.8939 17.329C23.5151 17.774 24.2713 17.9901 25.0339 17.94C25.7964 17.8901 26.518 17.5773 27.0757 17.0549C27.6335 16.5325 27.9928 15.8329 28.0926 15.0752C28.1923 14.3176 28.0263 13.5488 27.6228 12.8998C27.2192 12.251 26.6031 11.762 25.8795 11.5164C25.1559 11.2707 24.3696 11.2836 23.6544 11.5528C23.1989 11.7242 22.7903 11.9928 22.4549 12.3362C22.1362 12.6624 22.2775 13.1775 22.6725 13.4055L23.0914 13.6473C23.7284 14.0152 23.6028 14.9697 22.8922 15.1601L22.425 15.2853Z" fill="#2DF8BB"/>
<path d="M12.3472 15.2853C12.7878 15.4033 13.0575 15.8641 12.8342 16.2618C12.5991 16.6802 12.2739 17.0455 11.8784 17.329C11.2572 17.774 10.5009 17.9901 9.73841 17.94C8.97584 17.8901 8.25422 17.5773 7.69648 17.0549C7.13874 16.5325 6.77937 15.8329 6.67963 15.0752C6.57989 14.3176 6.74592 13.5488 7.14946 12.8998C7.55299 12.251 8.16906 11.762 8.89268 11.5164C9.61628 11.2707 10.4027 11.2836 11.1179 11.5528C11.5733 11.7242 11.982 11.9928 12.3174 12.3362C12.6361 12.6624 12.4947 13.1775 12.0997 13.4055L11.6808 13.6473C11.0438 14.0152 11.1694 14.9697 11.88 15.1601L12.3472 15.2853Z" fill="#2DF8BB"/>
</g>
<defs>
<clipPath id="clip0_158_1030">
<rect width="127.992" height="33.0303" fill="white" transform="translate(0.871094 0.606079)"/>
</clipPath>
</defs>
</svg>
