<svg width="168" height="34" viewBox="0 0 168 34" fill="none" xmlns="http://www.w3.org/2000/svg">
<g clip-path="url(#clip0_158_1074)">
<path fill-rule="evenodd" clip-rule="evenodd" d="M21.3982 10.2553C20.0403 9.34796 18.4437 8.86366 16.8106 8.86366V0.606079C20.0769 0.606079 23.27 1.57468 25.9859 3.38939C28.7018 5.20409 30.8185 7.78341 32.0686 10.8011C33.3185 13.8189 33.6456 17.1396 33.0084 20.3432C32.3711 23.5468 30.7982 26.4895 28.4885 28.7992C26.1789 31.1089 23.2361 32.6818 20.0325 33.319C16.8289 33.9563 13.5082 33.6292 10.4905 32.3792C7.47273 31.1292 4.89342 29.0125 3.07872 26.2966C1.26401 23.5806 0.29541 20.3876 0.29541 17.1212H8.55299C8.55299 18.7544 9.03729 20.3509 9.94463 21.7089C10.852 23.0669 12.1416 24.1252 13.6506 24.7502C15.1594 25.3753 16.8197 25.5388 18.4215 25.2201C20.0233 24.9015 21.4947 24.1151 22.6496 22.9602C23.8044 21.8053 24.5908 20.334 24.9094 18.7322C25.2281 17.1304 25.0646 15.47 24.4396 13.9612C23.8146 12.4523 22.7562 11.1626 21.3982 10.2553Z" fill="#007DFC"/>
<path fill-rule="evenodd" clip-rule="evenodd" d="M8.55298 0.606083C8.55298 1.69048 8.3394 2.76427 7.92441 3.76612C7.50943 4.76797 6.90119 5.67828 6.1344 6.44507C5.36761 7.21186 4.45731 7.82011 3.45545 8.23509C2.45359 8.65007 1.37981 8.86366 0.295411 8.86366L0.29541 17.1212C2.46421 17.1212 4.61177 16.6941 6.61549 15.8641C8.61921 15.0341 10.4398 13.8176 11.9734 12.284C13.5069 10.7505 14.7235 8.92988 15.5534 6.92616C16.3834 4.92244 16.8106 2.77488 16.8106 0.606079L8.55298 0.606083Z" fill="#007DFC"/>
<path d="M104.026 12.5404H100.02V25.2672H104.026V12.5404Z" fill="#007DFC"/>
<path d="M100.466 10.1574C100.884 10.5764 101.408 10.7859 102.036 10.7859C102.665 10.7859 103.18 10.5764 103.581 10.1574C103.983 9.72097 104.184 9.19719 104.184 8.58617C104.184 7.9577 103.983 7.43394 103.581 7.01497C103.18 6.59596 102.665 6.38647 102.036 6.38647C101.408 6.38647 100.884 6.59596 100.466 7.01497C100.063 7.43394 99.8628 7.9577 99.8628 8.58617C99.8628 9.19719 100.063 9.72097 100.466 10.1574Z" fill="#007DFC"/>
<path d="M42.5381 25.2672V6.77917H46.6495V21.6534H54.846V25.2672H42.5381Z" fill="#007DFC"/>
<path fill-rule="evenodd" clip-rule="evenodd" d="M62.2499 25.5553C60.9405 25.5553 59.7534 25.2673 58.6884 24.6911C57.641 24.0976 56.8117 23.2945 56.2007 22.2819C55.5897 21.2693 55.2842 20.1346 55.2842 18.8776C55.2842 17.6207 55.5897 16.4946 56.2007 15.4995C56.8117 14.5044 57.641 13.7188 58.6884 13.1427C59.7359 12.5491 60.9231 12.2523 62.2499 12.2523C63.5767 12.2523 64.7638 12.5404 65.8113 13.1165C66.8587 13.6926 67.688 14.487 68.299 15.4995C68.9101 16.4946 69.2156 17.6207 69.2156 18.8776C69.2156 20.1346 68.9101 21.2693 68.299 22.2819C67.688 23.2945 66.8587 24.0976 65.8113 24.6911C64.7638 25.2673 63.5767 25.5553 62.2499 25.5553ZM62.2499 21.9153C62.826 21.9153 63.3323 21.7931 63.7688 21.5487C64.2052 21.2869 64.5369 20.929 64.7638 20.475C65.0082 20.0037 65.1304 19.4712 65.1304 18.8776C65.1304 18.2841 65.0082 17.769 64.7638 17.3326C64.5194 16.8787 64.179 16.5296 63.7425 16.2852C63.3235 16.0232 62.826 15.8923 62.2499 15.8923C61.6912 15.8923 61.1937 16.0232 60.7572 16.2852C60.3208 16.5296 59.9803 16.8787 59.7359 17.3326C59.4915 17.7865 59.3694 18.3102 59.3694 18.9038C59.3694 19.4799 59.4915 20.0037 59.7359 20.475C59.9803 20.929 60.3208 21.2869 60.7572 21.5487C61.1937 21.7931 61.6912 21.9153 62.2499 21.9153Z" fill="#007DFC"/>
<path fill-rule="evenodd" clip-rule="evenodd" d="M72.3887 30.2427C73.4536 30.7315 74.6844 30.9759 76.0811 30.9759C77.4428 30.9759 78.6562 30.7053 79.7211 30.1641C80.786 29.6229 81.6239 28.8723 82.235 27.9121C82.846 26.9519 83.1519 25.8172 83.1519 24.5077V12.5404H79.2235V13.3954C78.9313 13.1495 78.5995 12.9431 78.2284 12.776C77.5475 12.4443 76.7706 12.2784 75.8978 12.2784C74.7281 12.2784 73.6893 12.5578 72.7816 13.1164C71.8736 13.6576 71.158 14.4083 70.6342 15.3685C70.1104 16.3113 69.8486 17.3762 69.8486 18.5634C69.8486 19.7331 70.1104 20.7979 70.6342 21.7581C71.158 22.7183 71.8736 23.4778 72.7816 24.0364C73.6893 24.595 74.7281 24.8744 75.8978 24.8744C76.7532 24.8744 77.5301 24.7086 78.2284 24.3769C78.5667 24.2162 78.8722 24.0268 79.1449 23.8087V24.6125C79.1449 25.5029 78.8569 26.1925 78.2808 26.6813C77.7222 27.1702 76.9453 27.4145 75.9502 27.4145C75.1471 27.4145 74.4575 27.2749 73.8814 26.9955C73.3228 26.7162 72.8164 26.3059 72.3625 25.7647L69.901 28.2263C70.512 29.0992 71.3413 29.7714 72.3887 30.2427ZM78.0975 20.9463C77.6959 21.1908 77.2159 21.313 76.6572 21.313C76.0985 21.313 75.6097 21.1908 75.1907 20.9463C74.7891 20.7019 74.4749 20.3702 74.248 19.9512C74.021 19.5148 73.9076 19.0521 73.9076 18.5634C73.9076 18.0396 74.021 17.5682 74.248 17.1493C74.4749 16.7303 74.7979 16.3986 75.2169 16.1541C75.6359 15.9097 76.116 15.7875 76.6572 15.7875C77.2159 15.7875 77.6959 15.9097 78.0975 16.1541C78.5164 16.3986 78.8306 16.7303 79.0402 17.1493C79.2671 17.5682 79.3806 18.0396 79.3806 18.5634C79.3806 19.0871 79.2671 19.5584 79.0402 19.9774C78.8306 20.379 78.5164 20.7019 78.0975 20.9463Z" fill="#007DFC"/>
<path fill-rule="evenodd" clip-rule="evenodd" d="M91.5838 25.5553C90.2741 25.5553 89.0867 25.2673 88.0223 24.6911C86.9744 24.0976 86.1453 23.2945 85.5343 22.2819C84.9232 21.2693 84.6177 20.1346 84.6177 18.8776C84.6177 17.6207 84.9232 16.4946 85.5343 15.4995C86.1453 14.5044 86.9744 13.7188 88.0223 13.1427C89.0693 12.5491 90.2568 12.2523 91.5838 12.2523C92.9099 12.2523 94.0974 12.5404 95.1444 13.1165C96.1923 13.6926 97.0214 14.487 97.6324 15.4995C98.2435 16.4946 98.549 17.6207 98.549 18.8776C98.549 20.1346 98.2435 21.2693 97.6324 22.2819C97.0214 23.2945 96.1923 24.0976 95.1444 24.6911C94.0974 25.2673 92.9099 25.5553 91.5838 25.5553ZM91.5838 21.9153C92.1593 21.9153 92.6655 21.7931 93.1023 21.5487C93.5383 21.2869 93.8703 20.929 94.0974 20.475C94.3418 20.0037 94.464 19.4712 94.464 18.8776C94.464 18.2841 94.3418 17.769 94.0974 17.3326C93.853 16.8787 93.5127 16.5296 93.0759 16.2852C92.6573 16.0232 92.1593 15.8923 91.5838 15.8923C91.0247 15.8923 90.5268 16.0232 90.0908 16.2852C89.654 16.5296 89.3138 16.8787 89.0693 17.3326C88.8249 17.7865 88.7027 18.3102 88.7027 18.9038C88.7027 19.4799 88.8249 20.0037 89.0693 20.475C89.3138 20.929 89.654 21.2869 90.0908 21.5487C90.5268 21.7931 91.0247 21.9153 91.5838 21.9153Z" fill="#007DFC"/>
<path fill-rule="evenodd" clip-rule="evenodd" d="M113.656 25.529C112.801 25.529 112.015 25.3632 111.299 25.0315C110.923 24.857 110.583 24.6485 110.279 24.4063V30.6355H106.324V12.5404H110.331V13.4187C110.621 13.181 110.944 12.9755 111.299 12.8022C112.015 12.453 112.801 12.2784 113.656 12.2784C114.861 12.2784 115.926 12.5665 116.851 13.1427C117.794 13.7187 118.527 14.5044 119.051 15.4995C119.592 16.4946 119.863 17.6294 119.863 18.9037C119.863 20.1782 119.592 21.313 119.051 22.3081C118.527 23.3032 117.794 24.0888 116.851 24.6649C115.926 25.241 114.861 25.529 113.656 25.529ZM112.924 21.9153C113.499 21.9153 113.997 21.7843 114.416 21.5225C114.853 21.2606 115.193 20.9027 115.437 20.4488C115.682 19.9949 115.804 19.4799 115.804 18.9037C115.804 18.3102 115.682 17.7865 115.437 17.3326C115.193 16.8787 114.853 16.5295 114.416 16.2851C113.997 16.0232 113.508 15.8923 112.949 15.8923C112.391 15.8923 111.893 16.0232 111.457 16.2851C111.038 16.5295 110.707 16.8787 110.462 17.3326C110.218 17.7865 110.095 18.3102 110.095 18.9037C110.095 19.4799 110.209 19.9949 110.436 20.4488C110.68 20.9027 111.02 21.2606 111.457 21.5225C111.893 21.7843 112.382 21.9153 112.924 21.9153Z" fill="#007DFC"/>
<path d="M123.784 25.2935C124.517 25.4855 125.259 25.5815 126.01 25.5815C127.598 25.5815 128.855 25.2149 129.781 24.4817C130.723 23.7485 131.195 22.7621 131.195 21.5226C131.195 20.7195 131.047 20.0735 130.749 19.5848C130.453 19.0785 130.069 18.6769 129.598 18.3801C129.126 18.0834 128.628 17.8476 128.105 17.673C127.581 17.4985 127.083 17.3501 126.612 17.2279C126.141 17.1057 125.757 16.966 125.46 16.8089C125.163 16.6517 125.015 16.4423 125.015 16.1804C125.015 15.936 125.129 15.7527 125.355 15.6304C125.582 15.4908 125.922 15.421 126.376 15.421C126.848 15.421 127.328 15.517 127.816 15.7091C128.323 15.901 128.777 16.2328 129.178 16.7042L131.456 14.3997C130.881 13.6665 130.13 13.1165 129.204 12.75C128.297 12.3659 127.302 12.1738 126.219 12.1738C125.19 12.1738 124.29 12.3484 123.522 12.6975C122.754 13.0467 122.16 13.5268 121.741 14.1378C121.323 14.7314 121.113 15.4385 121.113 16.259C121.113 17.0271 121.262 17.6644 121.558 18.1706C121.854 18.6594 122.239 19.0436 122.71 19.3228C123.181 19.6022 123.679 19.8204 124.203 19.9775C124.726 20.1346 125.224 20.283 125.696 20.4227C126.167 20.5449 126.551 20.6933 126.848 20.8679C127.162 21.025 127.319 21.2607 127.319 21.5749C127.319 21.8193 127.188 22.0113 126.926 22.151C126.682 22.2907 126.324 22.3605 125.853 22.3605C125.171 22.3605 124.543 22.2383 123.968 21.9939C123.391 21.7321 122.893 21.3742 122.475 20.9203L120.196 23.2247C120.633 23.696 121.157 24.1151 121.768 24.4817C122.396 24.8308 123.068 25.1014 123.784 25.2935Z" fill="#007DFC"/>
<path d="M138.5 25.5553C137.331 25.5553 136.292 25.3196 135.385 24.8482C134.494 24.3594 133.796 23.696 133.29 22.858C132.783 22.0026 132.53 21.025 132.53 19.9251V12.5404H136.537V19.8727C136.537 20.3091 136.606 20.6845 136.747 20.9987C136.903 21.313 137.131 21.5574 137.427 21.732C137.724 21.9066 138.082 21.9938 138.5 21.9938C139.094 21.9938 139.566 21.8105 139.915 21.4439C140.264 21.0598 140.439 20.5361 140.439 19.8727V12.5404H144.445V19.8989C144.445 21.0162 144.192 22.0026 143.685 22.858C143.179 23.696 142.481 24.3594 141.59 24.8482C140.7 25.3196 139.671 25.5553 138.5 25.5553Z" fill="#007DFC"/>
<path d="M150.444 12.5404H146.437V25.2672H150.444V17.8301C150.444 17.3937 150.531 17.027 150.705 16.7303C150.898 16.4335 151.151 16.2065 151.465 16.0494C151.78 15.8748 152.137 15.7875 152.539 15.7875C153.115 15.7875 153.595 15.9708 153.979 16.3375C154.381 16.6866 154.581 17.1842 154.581 17.8301V25.2672H158.588V17.8301C158.588 17.3937 158.676 17.027 158.85 16.7303C159.042 16.4335 159.295 16.2065 159.609 16.0494C159.923 15.8748 160.282 15.7875 160.683 15.7875C161.259 15.7875 161.739 15.9708 162.123 16.3375C162.524 16.6866 162.725 17.1842 162.725 17.8301V25.2672H166.732V17.3849C166.732 16.32 166.505 15.4122 166.051 14.6615C165.614 13.8933 165.012 13.3085 164.244 12.907C163.494 12.4879 162.629 12.2784 161.652 12.2784C160.657 12.2784 159.757 12.4967 158.955 12.9332C158.433 13.2112 157.977 13.5701 157.586 14.0097C157.222 13.5499 156.78 13.1736 156.257 12.8808C155.559 12.4793 154.765 12.2784 153.875 12.2784C152.932 12.2784 152.085 12.4793 151.335 12.8808C151.008 13.0478 150.711 13.2479 150.444 13.481V12.5404Z" fill="#007DFC"/>
</g>
<defs>
<clipPath id="clip0_158_1074">
<rect width="166.803" height="33.0303" fill="white" transform="translate(0.29541 0.606079)"/>
</clipPath>
</defs>
</svg>
