<svg width="143" height="28" viewBox="0 0 143 28" fill="none" xmlns="http://www.w3.org/2000/svg">
<g clip-path="url(#clip0_158_972)">
<path d="M56.7158 6.09802H53.7578V19.4449H61.9464V16.8297H56.7158V6.09802Z" fill="#4845D2"/>
<path d="M62.2285 14.9179C62.2285 17.7677 64.1404 19.6615 67.0262 19.6615C69.8939 19.6615 71.8058 17.7677 71.8058 14.9179C71.8058 12.0681 69.8939 10.1562 67.0262 10.1562C64.1404 10.1562 62.2285 12.0681 62.2285 14.9179ZM65.0241 14.8998C65.0241 13.5471 65.8178 12.6453 67.0262 12.6453C68.2166 12.6453 69.0102 13.5471 69.0102 14.8998C69.0102 16.2707 68.2166 17.1725 67.0262 17.1725C65.8178 17.1725 65.0241 16.2707 65.0241 14.8998Z" fill="#4845D2"/>
<path d="M72.2529 14.7735C72.2529 17.4969 74.0205 19.3366 76.5275 19.3366C77.736 19.3366 78.7821 18.9038 79.3051 18.2004V19.4449C79.3051 20.6894 78.5295 21.519 77.1588 21.519C75.9323 21.519 75.0846 20.9419 75.0305 19.9138H72.2168C72.4693 22.3848 74.3812 24.0441 76.9964 24.0441C80.0807 24.0441 82.0286 22.0422 82.0286 18.8677V10.4267H79.5215L79.3773 11.3465C78.8722 10.6071 77.8081 10.1201 76.5817 10.1201C74.0565 10.1201 72.2529 12.0139 72.2529 14.7735ZM75.0666 14.7013C75.0666 13.4027 75.9323 12.5369 77.0325 12.5369C78.3131 12.5369 79.251 13.3847 79.251 14.7013C79.251 16.018 78.3311 16.9198 77.0505 16.9198C75.9504 16.9198 75.0666 16.018 75.0666 14.7013Z" fill="#4845D2"/>
<path d="M82.8379 14.9179C82.8379 17.7677 84.7499 19.6615 87.6359 19.6615C90.5037 19.6615 92.4154 17.7677 92.4154 14.9179C92.4154 12.0681 90.5037 10.1562 87.6359 10.1562C84.7499 10.1562 82.8379 12.0681 82.8379 14.9179ZM85.6334 14.8998C85.6334 13.5471 86.427 12.6453 87.6359 12.6453C88.8258 12.6453 89.6193 13.5471 89.6193 14.8998C89.6193 16.2707 88.8258 17.1725 87.6359 17.1725C86.427 17.1725 85.6334 16.2707 85.6334 14.8998Z" fill="#4845D2"/>
<path d="M94.8102 9.01989C95.6756 9.01989 96.3792 8.31647 96.3792 7.43269C96.3792 6.5489 95.6756 5.86353 94.8102 5.86353C93.9267 5.86353 93.2231 6.5489 93.2231 7.43269C93.2231 8.31647 93.9267 9.01989 94.8102 9.01989ZM93.4032 19.4449H96.1992V10.4267H93.4032V19.4449Z" fill="#4845D2"/>
<path d="M97.8267 23.7735H100.568V18.543C101.091 19.2284 102.282 19.6974 103.526 19.6974C106.213 19.6974 107.836 17.6412 107.765 14.7915C107.692 11.8876 106.015 10.1381 103.508 10.1381C102.227 10.1381 101.019 10.6972 100.514 11.5269L100.369 10.4267H97.8267V23.7735ZM100.622 14.9357C100.622 13.583 101.524 12.6812 102.822 12.6812C104.139 12.6812 104.969 13.601 104.969 14.9357C104.969 16.2705 104.139 17.1903 102.822 17.1903C101.524 17.1903 100.622 16.2885 100.622 14.9357Z" fill="#4845D2"/>
<path d="M108.06 16.5951C108.132 18.4168 109.575 19.6793 111.848 19.6793C114.03 19.6793 115.546 18.525 115.546 16.6672C115.546 15.3326 114.752 14.4488 113.272 14.088L111.668 13.6912C111.091 13.547 110.73 13.4026 110.73 12.9337C110.73 12.4647 111.108 12.1581 111.668 12.1581C112.299 12.1581 112.713 12.573 112.696 13.1862H115.203C115.13 11.3104 113.706 10.1381 111.721 10.1381C109.72 10.1381 108.223 11.3285 108.223 13.1321C108.223 14.3405 108.89 15.3326 110.675 15.8015L112.262 16.2163C112.731 16.3426 112.93 16.559 112.93 16.8656C112.93 17.3165 112.515 17.6051 111.811 17.6051C111 17.6051 110.567 17.2264 110.567 16.5951H108.06Z" fill="#4845D2"/>
<path d="M119.797 19.6794C120.897 19.6794 121.997 19.1743 122.556 18.4349L122.737 19.4449H125.352V10.4268H122.575V15.1162C122.575 16.4689 122.178 17.2084 120.897 17.2084C119.905 17.2084 119.256 16.7575 119.256 15.0801V10.4268H116.478V16.0901C116.478 18.2365 117.669 19.6794 119.797 19.6794Z" fill="#4845D2"/>
<path d="M129.757 19.4449V14.521C129.757 13.0059 130.569 12.573 131.362 12.573C132.246 12.573 132.823 13.1141 132.823 14.2324V19.4449H135.565V14.521C135.565 12.9879 136.358 12.555 137.152 12.555C138.035 12.555 138.631 13.0961 138.631 14.2324V19.4449H141.337V13.547C141.337 11.4909 140.254 10.1201 137.927 10.1201C136.629 10.1201 135.565 10.7513 135.095 11.7253C134.555 10.7513 133.617 10.1201 132.119 10.1201C131.128 10.1201 130.208 10.571 129.667 11.2924L129.559 10.4267H126.961V19.4449H129.757Z" fill="#4845D2"/>
<path d="M0.90918 14.1212C0.90918 6.82432 6.82444 0.909058 14.1213 0.909058H31.4622C38.7591 0.909058 44.6743 6.82432 44.6743 14.1212V27.3333H14.1213C6.82444 27.3333 0.90918 21.4181 0.90918 14.1212Z" fill="#4845D2"/>
<path d="M31.4623 5.86353H14.1213C9.56081 5.86353 5.86377 9.56057 5.86377 14.1211C5.86377 18.6816 9.56081 22.3787 14.1213 22.3787H31.4623C36.0228 22.3787 39.7198 18.6816 39.7198 14.1211C39.7198 9.56057 36.0228 5.86353 31.4623 5.86353Z" fill="#A5B4FC"/>
<path d="M14.1215 18.2499C16.4017 18.2499 18.2503 16.4014 18.2503 14.1211C18.2503 11.8408 16.4017 9.99231 14.1215 9.99231C11.8412 9.99231 9.99268 11.8408 9.99268 14.1211C9.99268 16.4014 11.8412 18.2499 14.1215 18.2499Z" fill="black"/>
<path d="M12.4698 13.2953C12.9259 13.2953 13.2956 12.9256 13.2956 12.4696C13.2956 12.0135 12.9259 11.6438 12.4698 11.6438C12.0137 11.6438 11.644 12.0135 11.644 12.4696C11.644 12.9256 12.0137 13.2953 12.4698 13.2953Z" fill="white"/>
<path d="M32.288 18.2499C34.5682 18.2499 36.4168 16.4014 36.4168 14.1211C36.4168 11.8408 34.5682 9.99231 32.288 9.99231C30.0077 9.99231 28.1592 11.8408 28.1592 14.1211C28.1592 16.4014 30.0077 18.2499 32.288 18.2499Z" fill="black"/>
<path d="M30.6363 13.2953C31.0924 13.2953 31.4621 12.9256 31.4621 12.4696C31.4621 12.0135 31.0924 11.6438 30.6363 11.6438C30.1803 11.6438 29.8105 12.0135 29.8105 12.4696C29.8105 12.9256 30.1803 13.2953 30.6363 13.2953Z" fill="white"/>
</g>
<defs>
<clipPath id="clip0_158_972">
<rect width="141.205" height="26.4242" fill="white" transform="translate(0.90918 0.909058)"/>
</clipPath>
</defs>
</svg>
