<svg width="148" height="32" viewBox="0 0 148 32" fill="none" xmlns="http://www.w3.org/2000/svg">
<path d="M23.1323 25.2826L4.13163 12.3388C2.20614 11.0272 2.86068 8.29619 5.26172 7.65398L25.456 2.24113C25.8838 2.0887 26.3422 2.03921 26.7933 2.09679C27.2443 2.15437 27.6749 2.31735 28.0494 2.57221C28.4238 2.82707 28.7314 3.16645 28.9464 3.56219C29.1614 3.95793 29.2778 4.39861 29.2858 4.84767L28.089 23.2032C27.9471 25.382 25.0578 26.5942 23.1323 25.2826Z" fill="#E9327C"/>
<path d="M17.1061 28.4781L5.91224 6.85919C5.65636 6.36462 5.54377 5.80985 5.58686 5.25609C5.62996 4.70233 5.82708 4.17107 6.15648 3.72092C6.48589 3.27077 6.93478 2.91921 7.45365 2.70499C7.97253 2.49078 8.54122 2.42225 9.09703 2.50696L29.8421 5.66889C30.3197 5.7417 30.773 5.92542 31.1647 6.20495C31.5564 6.4845 31.8753 6.85186 32.0953 7.27684C32.3152 7.70183 32.4299 8.17229 32.4298 8.64956C32.4297 9.12682 32.3148 9.59726 32.0949 10.0222L22.5384 28.4791C22.2818 28.9723 21.8924 29.3861 21.4132 29.6749C20.9339 29.9638 20.3834 30.1165 19.822 30.1164C19.2605 30.1163 18.71 29.9634 18.2308 29.6744C17.7517 29.3852 17.3626 28.9714 17.1061 28.4781Z" fill="#1DACE3"/>
<path d="M29.2351 5.57565L18.8938 3.99939L6.19702 7.40399L11.2649 17.1952L23.1324 25.2826C23.3942 25.459 23.6822 25.5942 23.9861 25.6832L28.4937 16.9776L29.2351 5.57565Z" fill="#001A49"/>
<path d="M81.6162 8.10268C81.6162 7.72307 81.7302 7.352 81.9437 7.03636C82.1573 6.72073 82.4609 6.47472 82.816 6.32945C83.1711 6.18418 83.5618 6.14617 83.9389 6.22023C84.3158 6.29429 84.6621 6.47709 84.9339 6.74551C85.2058 7.01393 85.3908 7.35593 85.4658 7.72824C85.5408 8.10056 85.5024 8.48648 85.3552 8.83719C85.2081 9.1879 84.959 9.48766 84.6395 9.69856C84.3198 9.90945 83.9441 10.022 83.5597 10.022C83.0458 10.0169 82.5546 9.81297 82.1912 9.45415C81.8279 9.09531 81.6214 8.61012 81.6162 8.10268ZM81.9403 10.9602H85.1802V21.6227H81.9403V10.9602Z" fill="#001A49"/>
<path d="M99.1712 16.2916C99.2089 16.9964 99.105 17.7015 98.8657 18.3666C98.6263 19.0315 98.2563 19.6433 97.7768 20.1666C97.2972 20.6898 96.7177 21.1142 96.0714 21.4155C95.4251 21.7168 94.725 21.8889 94.0111 21.922C93.4107 21.9542 92.8105 21.8542 92.2539 21.6292C91.6974 21.4041 91.1986 21.0597 90.7935 20.6208V25.8883H87.5547V10.9603H90.7935V11.9624C91.1987 11.5236 91.6976 11.1794 92.2541 10.9545C92.8106 10.7297 93.4108 10.6298 94.0111 10.6622C94.725 10.6952 95.425 10.8672 96.0713 11.1683C96.7176 11.4695 97.2971 11.8939 97.7767 12.417C98.2563 12.9402 98.6263 13.5518 98.8657 14.2168C99.105 14.8817 99.2089 15.5868 99.1712 16.2916ZM95.9324 16.2916C95.9196 15.7924 95.7581 15.308 95.468 14.8989C95.1779 14.4899 94.7721 14.1745 94.3014 13.9922C93.8306 13.8097 93.3159 13.7686 92.8216 13.8738C92.3273 13.9789 91.8753 14.2256 91.5223 14.5831C91.1693 14.9406 90.9309 15.3931 90.8369 15.8838C90.743 16.3744 90.7977 16.8816 90.9942 17.3417C91.1907 17.8019 91.5202 18.1945 91.9415 18.4706C92.3629 18.7468 92.8573 18.8939 93.3629 18.8939C93.7102 18.9094 94.0568 18.8521 94.38 18.726C94.7032 18.5997 94.9958 18.4074 95.2384 18.1617C95.4811 17.9159 95.6683 17.6223 95.788 17.2999C95.9076 16.9776 95.9568 16.6339 95.9324 16.2916Z" fill="#001A49"/>
<path d="M109.168 18.4222C109.168 20.8749 107.009 21.9199 104.677 21.9199C103.734 22.0041 102.788 21.8071 101.961 21.3545C101.133 20.902 100.462 20.2146 100.034 19.3813L102.841 17.804C102.955 18.1892 103.2 18.524 103.534 18.7525C103.868 18.9809 104.271 19.0892 104.677 19.0592C105.454 19.0592 105.842 18.8238 105.842 18.3981C105.842 17.2245 100.53 17.8437 100.53 14.1536C100.53 11.8295 102.516 10.657 104.767 10.657C105.611 10.6308 106.447 10.8286 107.187 11.2298C107.928 11.6311 108.545 12.221 108.977 12.9382L106.213 14.4099C106.093 14.13 105.891 13.8914 105.634 13.724C105.376 13.5566 105.075 13.4678 104.767 13.4685C104.205 13.4685 103.86 13.6777 103.86 14.0657C103.857 15.2895 109.168 14.4789 109.168 18.4222Z" fill="#001A49"/>
<path d="M121.006 10.9603V21.6228H117.767V20.6187C117.394 21.0611 116.918 21.4096 116.381 21.6358C115.845 21.8619 115.262 21.9593 114.679 21.9199C112.498 21.9199 110.642 20.3844 110.642 17.5049V10.9603H113.88V17.0384C113.853 17.2926 113.883 17.5496 113.966 17.7914C114.05 18.0332 114.185 18.2542 114.364 18.4389C114.543 18.6237 114.761 18.7676 115.001 18.8608C115.242 18.9541 115.501 18.9942 115.759 18.9787C116.947 18.9787 117.772 18.2967 117.772 16.7821V10.9603H121.006Z" fill="#001A49"/>
<path d="M139.57 15.0752V21.6229H136.332V15.3534C136.332 14.2876 135.813 13.6046 134.777 13.6046C133.696 13.6046 133.093 14.3514 133.093 15.6097V21.6229H129.853V15.3534C129.853 14.2876 129.335 13.6046 128.298 13.6046C127.219 13.6046 126.614 14.3514 126.614 15.6097V21.6229H123.375V10.9604H126.619V11.9373C126.955 11.5023 127.396 11.1573 127.901 10.9338C128.406 10.7104 128.961 10.6156 129.513 10.6581C130.067 10.6313 130.62 10.7468 131.115 10.9934C131.611 11.24 132.034 11.6091 132.342 12.0649C132.701 11.588 133.176 11.2088 133.724 10.9628C134.272 10.7167 134.874 10.6119 135.474 10.6581C137.952 10.6623 139.57 12.4101 139.57 15.0752Z" fill="#001A49"/>
<path d="M142.315 10.8945C143.643 10.8945 144.719 9.83151 144.719 8.5202C144.719 7.2089 143.643 6.14587 142.315 6.14587C140.986 6.14587 139.91 7.2089 139.91 8.5202C139.91 9.83151 140.986 10.8945 142.315 10.8945Z" fill="#001A49"/>
<path d="M37.3958 6.05579H40.6356V21.6229H37.3958V6.05579ZM42.47 16.2916C42.4665 15.1737 42.7989 14.0799 43.4251 13.1488C44.0514 12.2176 44.9434 11.4909 45.9881 11.0606C47.0329 10.6304 48.1834 10.516 49.2941 10.732C50.4047 10.9479 51.4254 11.4844 52.2271 12.2736C53.0287 13.0628 53.5752 14.0691 53.7973 15.1653C54.0194 16.2615 53.9073 17.398 53.4749 18.4311C53.0426 19.4642 52.3096 20.3474 51.3687 20.9688C50.4277 21.5902 49.3213 21.922 48.1893 21.922C47.4375 21.9298 46.6917 21.7898 45.9953 21.5099C45.299 21.23 44.6661 20.8158 44.1337 20.2917C43.6012 19.7674 43.1798 19.1437 42.8942 18.4569C42.6085 17.7702 42.4644 17.034 42.47 16.2916ZM50.6761 16.2916C50.6634 15.8093 50.5071 15.3416 50.2265 14.9467C49.946 14.5519 49.5539 14.2474 49.0991 14.0714C48.6442 13.8956 48.147 13.856 47.6696 13.9577C47.1921 14.0594 46.7557 14.298 46.4147 14.6434C46.0738 14.9889 45.8436 15.4259 45.7529 15.8998C45.6622 16.3738 45.715 16.8636 45.9048 17.3082C46.0944 17.7526 46.4127 18.132 46.8196 18.3988C47.2265 18.6656 47.7041 18.808 48.1925 18.8082C48.5269 18.8176 48.8598 18.7584 49.1699 18.6344C49.4801 18.5106 49.7609 18.3245 49.9947 18.088C50.2284 17.8516 50.4101 17.57 50.528 17.2608C50.646 16.9515 50.6979 16.6215 50.6803 16.2916H50.6761ZM66.8267 10.9572V21.0873C66.8267 24.6697 63.9978 26.1832 61.1265 26.1832C60.1159 26.2585 59.1037 26.0576 58.2009 25.6024C57.2982 25.1473 56.5397 24.4554 56.0088 23.6029L58.772 22.0245C58.9951 22.4695 59.3504 22.8366 59.7905 23.0768C60.2306 23.317 60.7343 23.4188 61.2345 23.3686C61.5538 23.4116 61.8788 23.3833 62.1855 23.2857C62.4922 23.1881 62.7728 23.0239 63.0066 22.8049C63.2404 22.586 63.4214 22.318 63.5363 22.0206C63.6512 21.7234 63.6971 21.4044 63.6705 21.0873V20.1062C63.2911 20.5643 62.8083 20.9283 62.2608 21.169C61.7132 21.4097 61.1162 21.5204 60.5175 21.4921C59.0924 21.4483 57.7405 20.8585 56.7481 19.8474C55.7557 18.8364 55.2007 17.4837 55.2007 16.0756C55.2007 14.6674 55.7557 13.3147 56.7481 12.3037C57.7405 11.2926 59.0924 10.7028 60.5175 10.6591C61.1162 10.6308 61.7132 10.7414 62.2608 10.9821C62.8083 11.2228 63.2911 11.5868 63.6705 12.045V10.9572H66.8267ZM63.6747 16.0751C63.6961 15.5601 63.561 15.0506 63.2868 14.612C63.0126 14.1734 62.6118 13.8259 62.1359 13.614C61.6602 13.4022 61.131 13.3358 60.6167 13.4234C60.1024 13.5109 59.6263 13.7483 59.2497 14.1052C58.8731 14.4621 58.6132 14.922 58.5035 15.4259C58.3936 15.9298 58.439 16.4546 58.6336 16.9329C58.8282 17.4111 59.1633 17.8209 59.5956 18.1096C60.028 18.3983 60.5379 18.5526 61.0598 18.553C61.4001 18.5765 61.7416 18.5295 62.0624 18.415C62.3832 18.3005 62.6762 18.1209 62.9225 17.8877C63.1688 17.6547 63.363 17.3732 63.4926 17.0616C63.6221 16.7499 63.6842 16.4149 63.6747 16.0782V16.0751ZM68.6611 16.2843C68.6576 15.1664 68.9899 14.0726 69.6162 13.1415C70.2425 12.2103 71.1345 11.4835 72.1792 11.0533C73.224 10.6231 74.3744 10.5087 75.4851 10.7246C76.5957 10.9406 77.6164 11.477 78.4182 12.2663C79.2198 13.0555 79.7663 14.0618 79.9884 15.158C80.2105 16.2542 80.0984 17.3907 79.666 18.4238C79.2337 19.4569 78.5007 20.3401 77.5597 20.9615C76.6188 21.5829 75.5123 21.9147 74.3804 21.9147C73.6292 21.9225 72.884 21.7827 72.1882 21.5032C71.4923 21.2238 70.8597 20.8102 70.3274 20.2868C69.795 19.7635 69.3736 19.1407 69.0875 18.4546C68.8013 17.7687 68.6564 17.0334 68.6611 16.2916V16.2843ZM76.8672 16.2843C76.8547 15.8018 76.6984 15.3336 76.4179 14.9383C76.1373 14.5432 75.7449 14.2385 75.2899 14.0623C74.8348 13.8862 74.3374 13.8466 73.8596 13.9483C73.3818 14.05 72.945 14.2887 72.604 14.6343C72.2628 14.98 72.0325 15.4173 71.9418 15.8915C71.8511 16.3658 71.904 16.856 72.0939 17.3006C72.2839 17.7454 72.6024 18.1249 73.0096 18.3918C73.417 18.6586 73.8949 18.8009 74.3835 18.8009C74.717 18.8095 75.0487 18.7502 75.3578 18.6265C75.667 18.5028 75.9469 18.3172 76.1801 18.0817C76.4132 17.8461 76.5947 17.5655 76.7129 17.2574C76.8312 16.9494 76.8837 16.6206 76.8672 16.2916V16.2843Z" fill="#001A49"/>
</svg>
