<svg width="141" height="35" viewBox="0 0 141 35" fill="none" xmlns="http://www.w3.org/2000/svg">
<g clip-path="url(#clip0_158_1001)">
<path d="M42.4717 24.4071H52.3411V21.4343H45.9795V10.2371H42.4717V24.4071Z" fill="#2F234F"/>
<path d="M58.1882 22.4253C56.7811 22.4253 56.0478 21.1966 56.0478 19.3535C56.0478 17.5104 56.7811 16.2619 58.1882 16.2619C59.5953 16.2619 60.3484 17.5104 60.3484 19.3535C60.3484 21.1966 59.5953 22.4253 58.1882 22.4253ZM58.208 24.7242C61.478 24.7242 63.6184 22.4055 63.6184 19.3535C63.6184 16.3015 61.478 13.9828 58.208 13.9828C54.9578 13.9828 52.7778 16.3015 52.7778 19.3535C52.7778 22.4055 54.9578 24.7242 58.208 24.7242Z" fill="#2F234F"/>
<path d="M69.279 27.915C70.7852 27.915 72.113 27.5781 73.0048 26.7854C73.8174 26.0521 74.3524 24.9423 74.3524 23.4163V14.2603H71.2608V15.3503H71.2212C70.6266 14.4981 69.715 13.963 68.3674 13.963C65.8504 13.963 64.1064 16.0637 64.1064 19.0365C64.1064 22.1479 66.227 23.8523 68.5061 23.8523C69.7348 23.8523 70.5077 23.3568 71.1023 22.683H71.1815V23.6937C71.1815 24.9225 70.6068 25.6359 69.2394 25.6359C68.1692 25.6359 67.6341 25.1801 67.4557 24.645H64.3244C64.6415 26.7656 66.4846 27.915 69.279 27.915ZM69.2592 21.4543C68.0503 21.4543 67.2575 20.4634 67.2575 18.9374C67.2575 17.3916 68.0503 16.4006 69.2592 16.4006C70.6068 16.4006 71.3203 17.5501 71.3203 18.9176C71.3203 20.3445 70.6663 21.4543 69.2592 21.4543Z" fill="#2F234F"/>
<path d="M80.7092 22.4253C79.3021 22.4253 78.5688 21.1966 78.5688 19.3535C78.5688 17.5104 79.3021 16.2619 80.7092 16.2619C82.1163 16.2619 82.869 17.5104 82.869 19.3535C82.869 21.1966 82.1163 22.4253 80.7092 22.4253ZM80.729 24.7242C83.9987 24.7242 86.139 22.4055 86.139 19.3535C86.139 16.3015 83.9987 13.9828 80.729 13.9828C77.4788 13.9828 75.2988 16.3015 75.2988 19.3535C75.2988 22.4055 77.4788 24.7242 80.729 24.7242Z" fill="#2F234F"/>
<path d="M87.083 24.4071H90.3134V14.2602H87.083V24.4071ZM87.083 12.8531H90.3134V10.2371H87.083V12.8531Z" fill="#2F234F"/>
<path d="M91.7144 27.7565H94.9447V23.3568H94.9844C95.6185 24.209 96.55 24.7243 97.858 24.7243C100.514 24.7243 102.277 22.6236 102.277 19.3337C102.277 16.2817 100.633 13.963 97.9373 13.963C96.55 13.963 95.5591 14.5774 94.8654 15.489H94.806V14.2603H91.7144V27.7565ZM97.0256 22.2272C95.6384 22.2272 94.8456 21.0976 94.8456 19.4526C94.8456 17.8077 95.5591 16.5592 96.9662 16.5592C98.3534 16.5592 99.0074 17.7086 99.0074 19.4526C99.0074 21.1768 98.2544 22.2272 97.0256 22.2272Z" fill="#2F234F"/>
<path d="M107.537 24.7243C110.192 24.7243 112.154 23.5748 112.154 21.3552C112.154 18.759 110.054 18.3032 108.27 18.0059C106.982 17.7681 105.832 17.669 105.832 16.9556C105.832 16.3214 106.447 16.0241 107.24 16.0241C108.131 16.0241 108.746 16.3016 108.865 17.2132H111.837C111.679 15.2116 110.133 13.963 107.259 13.963C104.861 13.963 102.88 15.0728 102.88 17.2132C102.88 19.5914 104.762 20.067 106.526 20.3643C107.874 20.6021 109.102 20.7012 109.102 21.6128C109.102 22.2668 108.488 22.6236 107.517 22.6236C106.447 22.6236 105.773 22.1281 105.654 21.1174H102.602C102.701 23.3568 104.564 24.7243 107.537 24.7243Z" fill="#2F234F"/>
<path d="M116.542 24.7044C117.949 24.7044 118.841 24.1495 119.575 23.1586H119.634V24.4072H122.726V14.2603H119.495V19.9283C119.495 21.1372 118.821 21.9695 117.712 21.9695C116.681 21.9695 116.186 21.3552 116.186 20.2453V14.2603H112.975V20.9192C112.975 23.1784 114.204 24.7044 116.542 24.7044Z" fill="#2F234F"/>
<path d="M124.131 24.4072H127.362V18.7194C127.362 17.5105 127.956 16.6583 128.967 16.6583C129.938 16.6583 130.394 17.2925 130.394 18.3825V24.4072H133.624V18.7194C133.624 17.5105 134.199 16.6583 135.23 16.6583C136.201 16.6583 136.656 17.2925 136.656 18.3825V24.4072H139.887V17.8077C139.887 15.5286 138.737 13.963 136.438 13.963C135.13 13.963 134.04 14.5179 133.248 15.7466H133.208C132.693 14.6566 131.682 13.963 130.354 13.963C128.888 13.963 127.917 14.6567 127.282 15.707H127.223V14.2603H124.131V24.4072Z" fill="#2F234F"/>
<path fill-rule="evenodd" clip-rule="evenodd" d="M16.728 33.4905C25.8492 33.4905 33.2432 26.0964 33.2432 16.9753C33.2432 7.85428 25.8492 0.460205 16.728 0.460205C7.60696 0.460205 0.212891 7.85428 0.212891 16.9753C0.212891 26.0964 7.60696 33.4905 16.728 33.4905ZM19.2771 13.2203C20.6849 11.8124 20.6849 9.52996 19.2771 8.12213C17.8693 6.71431 15.5868 6.71431 14.179 8.12213C12.7712 9.52996 12.7712 11.8124 14.179 13.2203L16.728 15.7693L19.2771 13.2203ZM20.4831 19.5244C21.891 20.9323 24.1735 20.9323 25.5813 19.5244C26.989 18.1166 26.989 15.8341 25.5813 14.4263C24.1735 13.0185 21.891 13.0185 20.4831 14.4263L17.9341 16.9754L20.4831 19.5244ZM19.2771 25.8286C20.6849 24.4208 20.6849 22.1383 19.2771 20.7305L16.728 18.1814L14.179 20.7305C12.7712 22.1383 12.7712 24.4208 14.179 25.8286C15.5868 27.2364 17.8693 27.2364 19.2771 25.8286ZM7.87479 19.5244C6.467 18.1166 6.467 15.8341 7.87479 14.4263C9.28265 13.0185 11.5651 13.0185 12.973 14.4263L15.522 16.9754L12.973 19.5244C11.5651 20.9323 9.28265 20.9323 7.87479 19.5244Z" fill="#7F57F1"/>
</g>
<defs>
<clipPath id="clip0_158_1001">
<rect width="140.379" height="33.8561" fill="white" transform="translate(0.128906 0.193237)"/>
</clipPath>
</defs>
</svg>
