<svg width="140" height="35" viewBox="0 0 140 35" fill="none" xmlns="http://www.w3.org/2000/svg">
<g clip-path="url(#clip0_158_1013)">
<path d="M41.0171 24.101H50.8865V21.1283H44.5249V9.93103H41.0171V24.101Z" fill="#3C2B1F"/>
<path d="M56.7336 22.1192C55.3265 22.1192 54.5932 20.8905 54.5932 19.0474C54.5932 17.2043 55.3265 15.9557 56.7336 15.9557C58.1407 15.9557 58.8938 17.2043 58.8938 19.0474C58.8938 20.8905 58.1407 22.1192 56.7336 22.1192ZM56.7534 24.4181C60.0234 24.4181 62.1638 22.0994 62.1638 19.0474C62.1638 15.9954 60.0234 13.6766 56.7534 13.6766C53.5032 13.6766 51.3232 15.9954 51.3232 19.0474C51.3232 22.0994 53.5032 24.4181 56.7534 24.4181Z" fill="#3C2B1F"/>
<path d="M67.8239 27.6089C69.3301 27.6089 70.6579 27.272 71.5497 26.4792C72.3623 25.746 72.8974 24.6361 72.8974 23.1101V13.9541H69.8057V15.0441H69.7661C69.1716 14.192 68.2599 13.6569 66.9123 13.6569C64.3954 13.6569 62.6514 15.7576 62.6514 18.7303C62.6514 21.8418 64.7719 23.5461 67.051 23.5461C68.2797 23.5461 69.0526 23.0507 69.6472 22.3769H69.7265V23.3876C69.7265 24.6163 69.1517 25.3298 67.7843 25.3298C66.7141 25.3298 66.179 24.874 66.0006 24.3389H62.8694C63.1865 26.4594 65.0295 27.6089 67.8239 27.6089ZM67.8041 21.1481C66.5952 21.1481 65.8025 20.1572 65.8025 18.6312C65.8025 17.0854 66.5952 16.0945 67.8041 16.0945C69.1517 16.0945 69.8652 17.244 69.8652 18.6114C69.8652 20.0383 69.2112 21.1481 67.8041 21.1481Z" fill="#3C2B1F"/>
<path d="M79.2546 22.1192C77.8475 22.1192 77.1142 20.8905 77.1142 19.0474C77.1142 17.2043 77.8475 15.9557 79.2546 15.9557C80.6617 15.9557 81.4148 17.2043 81.4148 19.0474C81.4148 20.8905 80.6617 22.1192 79.2546 22.1192ZM79.2744 24.4181C82.5444 24.4181 84.6844 22.0994 84.6844 19.0474C84.6844 15.9954 82.5444 13.6766 79.2744 13.6766C76.0242 13.6766 73.8442 15.9954 73.8442 19.0474C73.8442 22.0994 76.0242 24.4181 79.2744 24.4181Z" fill="#3C2B1F"/>
<path d="M85.6279 24.101H88.8583V13.9541H85.6279V24.101ZM85.6279 12.547H88.8583V9.93103H85.6279V12.547Z" fill="#3C2B1F"/>
<path d="M90.2598 27.4503H93.4901V23.0507H93.5298C94.1639 23.9029 95.0954 24.4181 96.4034 24.4181C99.059 24.4181 100.823 22.3174 100.823 19.0276C100.823 15.9756 99.1779 13.6569 96.4827 13.6569C95.0954 13.6569 94.1045 14.2712 93.4109 15.1829H93.3514V13.9541H90.2598V27.4503ZM95.571 21.921C94.1838 21.921 93.391 20.7914 93.391 19.1465C93.391 17.5016 94.1045 16.253 95.5116 16.253C96.8989 16.253 97.5529 17.4025 97.5529 19.1465C97.5529 20.8707 96.7998 21.921 95.571 21.921Z" fill="#3C2B1F"/>
<path d="M106.082 24.4181C108.738 24.4181 110.7 23.2687 110.7 21.049C110.7 18.4529 108.599 17.997 106.815 17.6998C105.527 17.462 104.378 17.3629 104.378 16.6494C104.378 16.0152 104.992 15.718 105.785 15.718C106.677 15.718 107.291 15.9954 107.41 16.907H110.383C110.224 14.9054 108.678 13.6569 105.805 13.6569C103.407 13.6569 101.425 14.7667 101.425 16.907C101.425 19.2852 103.308 19.7609 105.071 20.0581C106.419 20.296 107.648 20.395 107.648 21.3067C107.648 21.9607 107.033 22.3174 106.062 22.3174C104.992 22.3174 104.318 21.822 104.199 20.8112H101.147C101.247 23.0507 103.109 24.4181 106.082 24.4181Z" fill="#3C2B1F"/>
<path d="M115.088 24.3982C116.495 24.3982 117.387 23.8433 118.12 22.8523H118.179V24.1009H121.271V13.954H118.041V19.622C118.041 20.8309 117.367 21.6633 116.257 21.6633C115.227 21.6633 114.731 21.0489 114.731 19.9391V13.954H111.521V20.6129C111.521 22.8722 112.749 24.3982 115.088 24.3982Z" fill="#3C2B1F"/>
<path d="M122.677 24.101H125.907V18.4132C125.907 17.2043 126.502 16.3521 127.512 16.3521C128.483 16.3521 128.939 16.9863 128.939 18.0763V24.101H132.17V18.4132C132.17 17.2043 132.744 16.3521 133.775 16.3521C134.746 16.3521 135.202 16.9863 135.202 18.0763V24.101H138.432V17.5016C138.432 15.2225 137.283 13.6569 134.984 13.6569C133.676 13.6569 132.586 14.2118 131.793 15.4405H131.753C131.238 14.3505 130.227 13.6569 128.9 13.6569C127.433 13.6569 126.462 14.3505 125.828 15.4009H125.768V13.9541H122.677V24.101Z" fill="#3C2B1F"/>
<path d="M21.3082 1.8258L18.0605 0.955566L15.3236 11.1698L12.8527 1.94832L9.60493 2.81856L12.2746 12.7817L5.62508 6.13222L3.24756 8.50974L10.5413 15.8035L1.45812 13.3696L0.587891 16.6174L10.5124 19.2766C10.3987 18.7865 10.3386 18.2759 10.3386 17.7512C10.3386 14.0373 13.3493 11.0266 17.0633 11.0266C20.7772 11.0266 23.7879 14.0373 23.7879 17.7512C23.7879 18.2725 23.7285 18.78 23.6163 19.2672L32.6358 21.684L33.506 18.4363L23.5421 15.7664L32.6258 13.3324L31.7555 10.0847L21.792 12.7544L28.4415 6.10492L26.064 3.72741L18.8715 10.92L21.3082 1.8258Z" fill="#F97316"/>
<path d="M23.6075 19.3049C23.329 20.4821 22.7412 21.5397 21.9346 22.387L28.4688 28.9213L30.8463 26.5438L23.6075 19.3049Z" fill="#F97316"/>
<path d="M21.8681 22.4554C21.0518 23.2892 20.0202 23.9114 18.8633 24.2321L21.241 33.1057L24.4887 32.2354L21.8681 22.4554Z" fill="#F97316"/>
<path d="M18.7422 24.2643C18.2055 24.4023 17.6429 24.4756 17.0631 24.4756C16.442 24.4756 15.8405 24.3914 15.2695 24.2338L12.8896 33.1154L16.1374 33.9856L18.7422 24.2643Z" fill="#F97316"/>
<path d="M15.1548 24.2011C14.0156 23.8645 13.0023 23.2344 12.2026 22.3982L5.65234 28.9485L8.02986 31.326L15.1548 24.2011Z" fill="#F97316"/>
<path d="M12.1477 22.3403C11.3617 21.4988 10.7892 20.4554 10.5167 19.2964L1.46777 21.7211L2.338 24.9688L12.1477 22.3403Z" fill="#F97316"/>
</g>
<defs>
<clipPath id="clip0_158_1013">
<rect width="138.727" height="33.8561" fill="white" transform="translate(0.325684 0.193237)"/>
</clipPath>
</defs>
</svg>
